G04 #@! TF.GenerationSoftware,KiCad,Pcbnew,(5.1.10-1-10_14)*
G04 #@! TF.CreationDate,2021-10-20T12:02:30-05:00*
G04 #@! TF.ProjectId,stepper_analyzer,73746570-7065-4725-9f61-6e616c797a65,rev?*
G04 #@! TF.SameCoordinates,Original*
G04 #@! TF.FileFunction,Soldermask,Top*
G04 #@! TF.FilePolarity,Negative*
%FSLAX46Y46*%
G04 Gerber Fmt 4.6, Leading zero omitted, Abs format (unit mm)*
G04 Created by KiCad (PCBNEW (5.1.10-1-10_14)) date 2021-10-20 12:02:30*
%MOMM*%
%LPD*%
G01*
G04 APERTURE LIST*
%ADD10R,1.500000X1.000000*%
%ADD11C,0.100000*%
%ADD12R,3.500000X1.700000*%
%ADD13R,1.700000X1.700000*%
%ADD14R,0.800000X0.900000*%
%ADD15R,3.000000X2.000000*%
%ADD16R,1.300000X0.300000*%
%ADD17C,0.800000*%
%ADD18C,5.000000*%
%ADD19O,1.700000X1.700000*%
%ADD20R,2.200000X1.800000*%
G04 APERTURE END LIST*
D10*
X65810000Y12250000D03*
D11*
G36*
X65060602Y13550000D02*
G01*
X65060602Y13574534D01*
X65065412Y13623365D01*
X65074984Y13671490D01*
X65089228Y13718445D01*
X65108005Y13763778D01*
X65131136Y13807051D01*
X65158396Y13847850D01*
X65189524Y13885779D01*
X65224221Y13920476D01*
X65262150Y13951604D01*
X65302949Y13978864D01*
X65346222Y14001995D01*
X65391555Y14020772D01*
X65438510Y14035016D01*
X65486635Y14044588D01*
X65535466Y14049398D01*
X65560000Y14049398D01*
X65560000Y14050000D01*
X66060000Y14050000D01*
X66060000Y14049398D01*
X66084534Y14049398D01*
X66133365Y14044588D01*
X66181490Y14035016D01*
X66228445Y14020772D01*
X66273778Y14001995D01*
X66317051Y13978864D01*
X66357850Y13951604D01*
X66395779Y13920476D01*
X66430476Y13885779D01*
X66461604Y13847850D01*
X66488864Y13807051D01*
X66511995Y13763778D01*
X66530772Y13718445D01*
X66545016Y13671490D01*
X66554588Y13623365D01*
X66559398Y13574534D01*
X66559398Y13550000D01*
X66560000Y13550000D01*
X66560000Y13000000D01*
X65060000Y13000000D01*
X65060000Y13550000D01*
X65060602Y13550000D01*
G37*
G36*
X66560000Y11500000D02*
G01*
X66560000Y10950000D01*
X66559398Y10950000D01*
X66559398Y10925466D01*
X66554588Y10876635D01*
X66545016Y10828510D01*
X66530772Y10781555D01*
X66511995Y10736222D01*
X66488864Y10692949D01*
X66461604Y10652150D01*
X66430476Y10614221D01*
X66395779Y10579524D01*
X66357850Y10548396D01*
X66317051Y10521136D01*
X66273778Y10498005D01*
X66228445Y10479228D01*
X66181490Y10464984D01*
X66133365Y10455412D01*
X66084534Y10450602D01*
X66060000Y10450602D01*
X66060000Y10450000D01*
X65560000Y10450000D01*
X65560000Y10450602D01*
X65535466Y10450602D01*
X65486635Y10455412D01*
X65438510Y10464984D01*
X65391555Y10479228D01*
X65346222Y10498005D01*
X65302949Y10521136D01*
X65262150Y10548396D01*
X65224221Y10579524D01*
X65189524Y10614221D01*
X65158396Y10652150D01*
X65131136Y10692949D01*
X65108005Y10736222D01*
X65089228Y10781555D01*
X65074984Y10828510D01*
X65065412Y10876635D01*
X65060602Y10925466D01*
X65060602Y10950000D01*
X65060000Y10950000D01*
X65060000Y11500000D01*
X66560000Y11500000D01*
G37*
D10*
X63060000Y12250000D03*
D11*
G36*
X62310602Y13550000D02*
G01*
X62310602Y13574534D01*
X62315412Y13623365D01*
X62324984Y13671490D01*
X62339228Y13718445D01*
X62358005Y13763778D01*
X62381136Y13807051D01*
X62408396Y13847850D01*
X62439524Y13885779D01*
X62474221Y13920476D01*
X62512150Y13951604D01*
X62552949Y13978864D01*
X62596222Y14001995D01*
X62641555Y14020772D01*
X62688510Y14035016D01*
X62736635Y14044588D01*
X62785466Y14049398D01*
X62810000Y14049398D01*
X62810000Y14050000D01*
X63310000Y14050000D01*
X63310000Y14049398D01*
X63334534Y14049398D01*
X63383365Y14044588D01*
X63431490Y14035016D01*
X63478445Y14020772D01*
X63523778Y14001995D01*
X63567051Y13978864D01*
X63607850Y13951604D01*
X63645779Y13920476D01*
X63680476Y13885779D01*
X63711604Y13847850D01*
X63738864Y13807051D01*
X63761995Y13763778D01*
X63780772Y13718445D01*
X63795016Y13671490D01*
X63804588Y13623365D01*
X63809398Y13574534D01*
X63809398Y13550000D01*
X63810000Y13550000D01*
X63810000Y13000000D01*
X62310000Y13000000D01*
X62310000Y13550000D01*
X62310602Y13550000D01*
G37*
G36*
X63810000Y11500000D02*
G01*
X63810000Y10950000D01*
X63809398Y10950000D01*
X63809398Y10925466D01*
X63804588Y10876635D01*
X63795016Y10828510D01*
X63780772Y10781555D01*
X63761995Y10736222D01*
X63738864Y10692949D01*
X63711604Y10652150D01*
X63680476Y10614221D01*
X63645779Y10579524D01*
X63607850Y10548396D01*
X63567051Y10521136D01*
X63523778Y10498005D01*
X63478445Y10479228D01*
X63431490Y10464984D01*
X63383365Y10455412D01*
X63334534Y10450602D01*
X63310000Y10450602D01*
X63310000Y10450000D01*
X62810000Y10450000D01*
X62810000Y10450602D01*
X62785466Y10450602D01*
X62736635Y10455412D01*
X62688510Y10464984D01*
X62641555Y10479228D01*
X62596222Y10498005D01*
X62552949Y10521136D01*
X62512150Y10548396D01*
X62474221Y10579524D01*
X62439524Y10614221D01*
X62408396Y10652150D01*
X62381136Y10692949D01*
X62358005Y10736222D01*
X62339228Y10781555D01*
X62324984Y10828510D01*
X62315412Y10876635D01*
X62310602Y10925466D01*
X62310602Y10950000D01*
X62310000Y10950000D01*
X62310000Y11500000D01*
X63810000Y11500000D01*
G37*
D10*
X60310000Y12250000D03*
D11*
G36*
X59560602Y13550000D02*
G01*
X59560602Y13574534D01*
X59565412Y13623365D01*
X59574984Y13671490D01*
X59589228Y13718445D01*
X59608005Y13763778D01*
X59631136Y13807051D01*
X59658396Y13847850D01*
X59689524Y13885779D01*
X59724221Y13920476D01*
X59762150Y13951604D01*
X59802949Y13978864D01*
X59846222Y14001995D01*
X59891555Y14020772D01*
X59938510Y14035016D01*
X59986635Y14044588D01*
X60035466Y14049398D01*
X60060000Y14049398D01*
X60060000Y14050000D01*
X60560000Y14050000D01*
X60560000Y14049398D01*
X60584534Y14049398D01*
X60633365Y14044588D01*
X60681490Y14035016D01*
X60728445Y14020772D01*
X60773778Y14001995D01*
X60817051Y13978864D01*
X60857850Y13951604D01*
X60895779Y13920476D01*
X60930476Y13885779D01*
X60961604Y13847850D01*
X60988864Y13807051D01*
X61011995Y13763778D01*
X61030772Y13718445D01*
X61045016Y13671490D01*
X61054588Y13623365D01*
X61059398Y13574534D01*
X61059398Y13550000D01*
X61060000Y13550000D01*
X61060000Y13000000D01*
X59560000Y13000000D01*
X59560000Y13550000D01*
X59560602Y13550000D01*
G37*
G36*
X61060000Y11500000D02*
G01*
X61060000Y10950000D01*
X61059398Y10950000D01*
X61059398Y10925466D01*
X61054588Y10876635D01*
X61045016Y10828510D01*
X61030772Y10781555D01*
X61011995Y10736222D01*
X60988864Y10692949D01*
X60961604Y10652150D01*
X60930476Y10614221D01*
X60895779Y10579524D01*
X60857850Y10548396D01*
X60817051Y10521136D01*
X60773778Y10498005D01*
X60728445Y10479228D01*
X60681490Y10464984D01*
X60633365Y10455412D01*
X60584534Y10450602D01*
X60560000Y10450602D01*
X60560000Y10450000D01*
X60060000Y10450000D01*
X60060000Y10450602D01*
X60035466Y10450602D01*
X59986635Y10455412D01*
X59938510Y10464984D01*
X59891555Y10479228D01*
X59846222Y10498005D01*
X59802949Y10521136D01*
X59762150Y10548396D01*
X59724221Y10579524D01*
X59689524Y10614221D01*
X59658396Y10652150D01*
X59631136Y10692949D01*
X59608005Y10736222D01*
X59589228Y10781555D01*
X59574984Y10828510D01*
X59565412Y10876635D01*
X59560602Y10925466D01*
X59560602Y10950000D01*
X59560000Y10950000D01*
X59560000Y11500000D01*
X61060000Y11500000D01*
G37*
G36*
G01*
X47760001Y4975000D02*
X46859999Y4975000D01*
G75*
G02*
X46610000Y5224999I0J249999D01*
G01*
X46610000Y5875001D01*
G75*
G02*
X46859999Y6125000I249999J0D01*
G01*
X47760001Y6125000D01*
G75*
G02*
X48010000Y5875001I0J-249999D01*
G01*
X48010000Y5224999D01*
G75*
G02*
X47760001Y4975000I-249999J0D01*
G01*
G37*
G36*
G01*
X47760001Y2925000D02*
X46859999Y2925000D01*
G75*
G02*
X46610000Y3174999I0J249999D01*
G01*
X46610000Y3825001D01*
G75*
G02*
X46859999Y4075000I249999J0D01*
G01*
X47760001Y4075000D01*
G75*
G02*
X48010000Y3825001I0J-249999D01*
G01*
X48010000Y3174999D01*
G75*
G02*
X47760001Y2925000I-249999J0D01*
G01*
G37*
D12*
X32790000Y6870000D03*
X32790000Y9410000D03*
X32790000Y11950000D03*
X32790000Y14490000D03*
X32790000Y17030000D03*
X32790000Y19570000D03*
X32790000Y22110000D03*
X32790000Y24650000D03*
X32790000Y27190000D03*
X32790000Y29730000D03*
X32790000Y32270000D03*
X32790000Y34810000D03*
X32790000Y37350000D03*
X32790000Y39890000D03*
X32790000Y42430000D03*
X32790000Y44970000D03*
X32790000Y47510000D03*
X32790000Y50050000D03*
X32790000Y52590000D03*
X32790000Y55130000D03*
X13210000Y6870000D03*
X13210000Y9410000D03*
X13210000Y11950000D03*
X13210000Y14490000D03*
X13210000Y17030000D03*
X13210000Y19570000D03*
X13210000Y22110000D03*
X13210000Y24650000D03*
X13210000Y27190000D03*
X13210000Y29730000D03*
X13210000Y32270000D03*
X13210000Y34810000D03*
X13210000Y37350000D03*
X13210000Y39890000D03*
X13210000Y42430000D03*
X13210000Y44970000D03*
X13210000Y47510000D03*
X13210000Y50050000D03*
X13210000Y52590000D03*
X13210000Y55130000D03*
D13*
X31890000Y50050000D03*
X31890000Y37350000D03*
X31890000Y24650000D03*
X31890000Y11950000D03*
X14110000Y11950000D03*
X14110000Y24650000D03*
X14110000Y37350000D03*
X14110000Y50050000D03*
G36*
G01*
X48367001Y50982000D02*
X47466999Y50982000D01*
G75*
G02*
X47217000Y51231999I0J249999D01*
G01*
X47217000Y51882001D01*
G75*
G02*
X47466999Y52132000I249999J0D01*
G01*
X48367001Y52132000D01*
G75*
G02*
X48617000Y51882001I0J-249999D01*
G01*
X48617000Y51231999D01*
G75*
G02*
X48367001Y50982000I-249999J0D01*
G01*
G37*
G36*
G01*
X48367001Y48932000D02*
X47466999Y48932000D01*
G75*
G02*
X47217000Y49181999I0J249999D01*
G01*
X47217000Y49832001D01*
G75*
G02*
X47466999Y50082000I249999J0D01*
G01*
X48367001Y50082000D01*
G75*
G02*
X48617000Y49832001I0J-249999D01*
G01*
X48617000Y49181999D01*
G75*
G02*
X48367001Y48932000I-249999J0D01*
G01*
G37*
G36*
G01*
X84689001Y46782000D02*
X83788999Y46782000D01*
G75*
G02*
X83539000Y47031999I0J249999D01*
G01*
X83539000Y47682001D01*
G75*
G02*
X83788999Y47932000I249999J0D01*
G01*
X84689001Y47932000D01*
G75*
G02*
X84939000Y47682001I0J-249999D01*
G01*
X84939000Y47031999D01*
G75*
G02*
X84689001Y46782000I-249999J0D01*
G01*
G37*
G36*
G01*
X84689001Y44732000D02*
X83788999Y44732000D01*
G75*
G02*
X83539000Y44981999I0J249999D01*
G01*
X83539000Y45632001D01*
G75*
G02*
X83788999Y45882000I249999J0D01*
G01*
X84689001Y45882000D01*
G75*
G02*
X84939000Y45632001I0J-249999D01*
G01*
X84939000Y44981999D01*
G75*
G02*
X84689001Y44732000I-249999J0D01*
G01*
G37*
G36*
G01*
X50010001Y4975000D02*
X49109999Y4975000D01*
G75*
G02*
X48860000Y5224999I0J249999D01*
G01*
X48860000Y5875001D01*
G75*
G02*
X49109999Y6125000I249999J0D01*
G01*
X50010001Y6125000D01*
G75*
G02*
X50260000Y5875001I0J-249999D01*
G01*
X50260000Y5224999D01*
G75*
G02*
X50010001Y4975000I-249999J0D01*
G01*
G37*
G36*
G01*
X50010001Y2925000D02*
X49109999Y2925000D01*
G75*
G02*
X48860000Y3174999I0J249999D01*
G01*
X48860000Y3825001D01*
G75*
G02*
X49109999Y4075000I249999J0D01*
G01*
X50010001Y4075000D01*
G75*
G02*
X50260000Y3825001I0J-249999D01*
G01*
X50260000Y3174999D01*
G75*
G02*
X50010001Y2925000I-249999J0D01*
G01*
G37*
D14*
X42964000Y9622000D03*
X43914000Y7622000D03*
X42014000Y7622000D03*
G36*
G01*
X44510001Y47450000D02*
X43609999Y47450000D01*
G75*
G02*
X43360000Y47699999I0J249999D01*
G01*
X43360000Y48350001D01*
G75*
G02*
X43609999Y48600000I249999J0D01*
G01*
X44510001Y48600000D01*
G75*
G02*
X44760000Y48350001I0J-249999D01*
G01*
X44760000Y47699999D01*
G75*
G02*
X44510001Y47450000I-249999J0D01*
G01*
G37*
G36*
G01*
X44510001Y45400000D02*
X43609999Y45400000D01*
G75*
G02*
X43360000Y45649999I0J249999D01*
G01*
X43360000Y46300001D01*
G75*
G02*
X43609999Y46550000I249999J0D01*
G01*
X44510001Y46550000D01*
G75*
G02*
X44760000Y46300001I0J-249999D01*
G01*
X44760000Y45649999D01*
G75*
G02*
X44510001Y45400000I-249999J0D01*
G01*
G37*
D15*
X51800000Y40300000D03*
X51800000Y17500000D03*
D16*
X49450000Y19150000D03*
X49450000Y19650000D03*
X49450000Y20150000D03*
X49450000Y20650000D03*
X49450000Y21150000D03*
X49450000Y21650000D03*
X49450000Y22150000D03*
X49450000Y22650000D03*
X49450000Y23150000D03*
X49450000Y23650000D03*
X49450000Y24150000D03*
X49450000Y24650000D03*
X49450000Y25150000D03*
X49450000Y25650000D03*
X49450000Y26150000D03*
X49450000Y26650000D03*
X49450000Y27150000D03*
X49450000Y27650000D03*
X49450000Y28150000D03*
X49450000Y28650000D03*
X49450000Y29150000D03*
X49450000Y29650000D03*
X49450000Y30150000D03*
X49450000Y30650000D03*
X49450000Y31150000D03*
X49450000Y31650000D03*
X49450000Y32150000D03*
X49450000Y32650000D03*
X49450000Y33150000D03*
X49450000Y33650000D03*
X49450000Y34150000D03*
X49450000Y34650000D03*
X49450000Y35150000D03*
X49450000Y35650000D03*
X49450000Y36150000D03*
X49450000Y36650000D03*
X49450000Y37150000D03*
X49450000Y37650000D03*
X49450000Y38150000D03*
X49450000Y38650000D03*
G36*
G01*
X88915000Y50935000D02*
X89215000Y50935000D01*
G75*
G02*
X89365000Y50785000I0J-150000D01*
G01*
X89365000Y49135000D01*
G75*
G02*
X89215000Y48985000I-150000J0D01*
G01*
X88915000Y48985000D01*
G75*
G02*
X88765000Y49135000I0J150000D01*
G01*
X88765000Y50785000D01*
G75*
G02*
X88915000Y50935000I150000J0D01*
G01*
G37*
G36*
G01*
X87645000Y50935000D02*
X87945000Y50935000D01*
G75*
G02*
X88095000Y50785000I0J-150000D01*
G01*
X88095000Y49135000D01*
G75*
G02*
X87945000Y48985000I-150000J0D01*
G01*
X87645000Y48985000D01*
G75*
G02*
X87495000Y49135000I0J150000D01*
G01*
X87495000Y50785000D01*
G75*
G02*
X87645000Y50935000I150000J0D01*
G01*
G37*
G36*
G01*
X86375000Y50935000D02*
X86675000Y50935000D01*
G75*
G02*
X86825000Y50785000I0J-150000D01*
G01*
X86825000Y49135000D01*
G75*
G02*
X86675000Y48985000I-150000J0D01*
G01*
X86375000Y48985000D01*
G75*
G02*
X86225000Y49135000I0J150000D01*
G01*
X86225000Y50785000D01*
G75*
G02*
X86375000Y50935000I150000J0D01*
G01*
G37*
G36*
G01*
X85105000Y50935000D02*
X85405000Y50935000D01*
G75*
G02*
X85555000Y50785000I0J-150000D01*
G01*
X85555000Y49135000D01*
G75*
G02*
X85405000Y48985000I-150000J0D01*
G01*
X85105000Y48985000D01*
G75*
G02*
X84955000Y49135000I0J150000D01*
G01*
X84955000Y50785000D01*
G75*
G02*
X85105000Y50935000I150000J0D01*
G01*
G37*
G36*
G01*
X85105000Y55885000D02*
X85405000Y55885000D01*
G75*
G02*
X85555000Y55735000I0J-150000D01*
G01*
X85555000Y54085000D01*
G75*
G02*
X85405000Y53935000I-150000J0D01*
G01*
X85105000Y53935000D01*
G75*
G02*
X84955000Y54085000I0J150000D01*
G01*
X84955000Y55735000D01*
G75*
G02*
X85105000Y55885000I150000J0D01*
G01*
G37*
G36*
G01*
X86375000Y55885000D02*
X86675000Y55885000D01*
G75*
G02*
X86825000Y55735000I0J-150000D01*
G01*
X86825000Y54085000D01*
G75*
G02*
X86675000Y53935000I-150000J0D01*
G01*
X86375000Y53935000D01*
G75*
G02*
X86225000Y54085000I0J150000D01*
G01*
X86225000Y55735000D01*
G75*
G02*
X86375000Y55885000I150000J0D01*
G01*
G37*
G36*
G01*
X87645000Y55885000D02*
X87945000Y55885000D01*
G75*
G02*
X88095000Y55735000I0J-150000D01*
G01*
X88095000Y54085000D01*
G75*
G02*
X87945000Y53935000I-150000J0D01*
G01*
X87645000Y53935000D01*
G75*
G02*
X87495000Y54085000I0J150000D01*
G01*
X87495000Y55735000D01*
G75*
G02*
X87645000Y55885000I150000J0D01*
G01*
G37*
G36*
G01*
X88915000Y55885000D02*
X89215000Y55885000D01*
G75*
G02*
X89365000Y55735000I0J-150000D01*
G01*
X89365000Y54085000D01*
G75*
G02*
X89215000Y53935000I-150000J0D01*
G01*
X88915000Y53935000D01*
G75*
G02*
X88765000Y54085000I0J150000D01*
G01*
X88765000Y55735000D01*
G75*
G02*
X88915000Y55885000I150000J0D01*
G01*
G37*
G36*
G01*
X54625000Y50935000D02*
X54925000Y50935000D01*
G75*
G02*
X55075000Y50785000I0J-150000D01*
G01*
X55075000Y49135000D01*
G75*
G02*
X54925000Y48985000I-150000J0D01*
G01*
X54625000Y48985000D01*
G75*
G02*
X54475000Y49135000I0J150000D01*
G01*
X54475000Y50785000D01*
G75*
G02*
X54625000Y50935000I150000J0D01*
G01*
G37*
G36*
G01*
X53355000Y50935000D02*
X53655000Y50935000D01*
G75*
G02*
X53805000Y50785000I0J-150000D01*
G01*
X53805000Y49135000D01*
G75*
G02*
X53655000Y48985000I-150000J0D01*
G01*
X53355000Y48985000D01*
G75*
G02*
X53205000Y49135000I0J150000D01*
G01*
X53205000Y50785000D01*
G75*
G02*
X53355000Y50935000I150000J0D01*
G01*
G37*
G36*
G01*
X52085000Y50935000D02*
X52385000Y50935000D01*
G75*
G02*
X52535000Y50785000I0J-150000D01*
G01*
X52535000Y49135000D01*
G75*
G02*
X52385000Y48985000I-150000J0D01*
G01*
X52085000Y48985000D01*
G75*
G02*
X51935000Y49135000I0J150000D01*
G01*
X51935000Y50785000D01*
G75*
G02*
X52085000Y50935000I150000J0D01*
G01*
G37*
G36*
G01*
X50815000Y50935000D02*
X51115000Y50935000D01*
G75*
G02*
X51265000Y50785000I0J-150000D01*
G01*
X51265000Y49135000D01*
G75*
G02*
X51115000Y48985000I-150000J0D01*
G01*
X50815000Y48985000D01*
G75*
G02*
X50665000Y49135000I0J150000D01*
G01*
X50665000Y50785000D01*
G75*
G02*
X50815000Y50935000I150000J0D01*
G01*
G37*
G36*
G01*
X50815000Y55885000D02*
X51115000Y55885000D01*
G75*
G02*
X51265000Y55735000I0J-150000D01*
G01*
X51265000Y54085000D01*
G75*
G02*
X51115000Y53935000I-150000J0D01*
G01*
X50815000Y53935000D01*
G75*
G02*
X50665000Y54085000I0J150000D01*
G01*
X50665000Y55735000D01*
G75*
G02*
X50815000Y55885000I150000J0D01*
G01*
G37*
G36*
G01*
X52085000Y55885000D02*
X52385000Y55885000D01*
G75*
G02*
X52535000Y55735000I0J-150000D01*
G01*
X52535000Y54085000D01*
G75*
G02*
X52385000Y53935000I-150000J0D01*
G01*
X52085000Y53935000D01*
G75*
G02*
X51935000Y54085000I0J150000D01*
G01*
X51935000Y55735000D01*
G75*
G02*
X52085000Y55885000I150000J0D01*
G01*
G37*
G36*
G01*
X53355000Y55885000D02*
X53655000Y55885000D01*
G75*
G02*
X53805000Y55735000I0J-150000D01*
G01*
X53805000Y54085000D01*
G75*
G02*
X53655000Y53935000I-150000J0D01*
G01*
X53355000Y53935000D01*
G75*
G02*
X53205000Y54085000I0J150000D01*
G01*
X53205000Y55735000D01*
G75*
G02*
X53355000Y55885000I150000J0D01*
G01*
G37*
G36*
G01*
X54625000Y55885000D02*
X54925000Y55885000D01*
G75*
G02*
X55075000Y55735000I0J-150000D01*
G01*
X55075000Y54085000D01*
G75*
G02*
X54925000Y53935000I-150000J0D01*
G01*
X54625000Y53935000D01*
G75*
G02*
X54475000Y54085000I0J150000D01*
G01*
X54475000Y55735000D01*
G75*
G02*
X54625000Y55885000I150000J0D01*
G01*
G37*
G36*
G01*
X88499000Y46017999D02*
X88499000Y46918001D01*
G75*
G02*
X88748999Y47168000I249999J0D01*
G01*
X89399001Y47168000D01*
G75*
G02*
X89649000Y46918001I0J-249999D01*
G01*
X89649000Y46017999D01*
G75*
G02*
X89399001Y45768000I-249999J0D01*
G01*
X88748999Y45768000D01*
G75*
G02*
X88499000Y46017999I0J249999D01*
G01*
G37*
G36*
G01*
X86449000Y46017999D02*
X86449000Y46918001D01*
G75*
G02*
X86698999Y47168000I249999J0D01*
G01*
X87349001Y47168000D01*
G75*
G02*
X87599000Y46918001I0J-249999D01*
G01*
X87599000Y46017999D01*
G75*
G02*
X87349001Y45768000I-249999J0D01*
G01*
X86698999Y45768000D01*
G75*
G02*
X86449000Y46017999I0J249999D01*
G01*
G37*
G36*
G01*
X52676000Y46398999D02*
X52676000Y47299001D01*
G75*
G02*
X52925999Y47549000I249999J0D01*
G01*
X53576001Y47549000D01*
G75*
G02*
X53826000Y47299001I0J-249999D01*
G01*
X53826000Y46398999D01*
G75*
G02*
X53576001Y46149000I-249999J0D01*
G01*
X52925999Y46149000D01*
G75*
G02*
X52676000Y46398999I0J249999D01*
G01*
G37*
G36*
G01*
X50626000Y46398999D02*
X50626000Y47299001D01*
G75*
G02*
X50875999Y47549000I249999J0D01*
G01*
X51526001Y47549000D01*
G75*
G02*
X51776000Y47299001I0J-249999D01*
G01*
X51776000Y46398999D01*
G75*
G02*
X51526001Y46149000I-249999J0D01*
G01*
X50875999Y46149000D01*
G75*
G02*
X50626000Y46398999I0J249999D01*
G01*
G37*
D17*
X3325825Y4325825D03*
X2000000Y4875000D03*
X674175Y4325825D03*
X125000Y3000000D03*
X674175Y1674175D03*
X2000000Y1125000D03*
X3325825Y1674175D03*
X3875000Y3000000D03*
D18*
X2000000Y3000000D03*
D17*
X99325825Y55325825D03*
X98000000Y55875000D03*
X96674175Y55325825D03*
X96125000Y54000000D03*
X96674175Y52674175D03*
X98000000Y52125000D03*
X99325825Y52674175D03*
X99875000Y54000000D03*
D18*
X98000000Y54000000D03*
D17*
X99325825Y4325825D03*
X98000000Y4875000D03*
X96674175Y4325825D03*
X96125000Y3000000D03*
X96674175Y1674175D03*
X98000000Y1125000D03*
X99325825Y1674175D03*
X99875000Y3000000D03*
D18*
X98000000Y3000000D03*
D17*
X3325825Y55325825D03*
X2000000Y55875000D03*
X674175Y55325825D03*
X125000Y54000000D03*
X674175Y52674175D03*
X2000000Y52125000D03*
X3325825Y52674175D03*
X3875000Y54000000D03*
D18*
X2000000Y54000000D03*
G36*
G01*
X40874001Y13898000D02*
X39973999Y13898000D01*
G75*
G02*
X39724000Y14147999I0J249999D01*
G01*
X39724000Y14798001D01*
G75*
G02*
X39973999Y15048000I249999J0D01*
G01*
X40874001Y15048000D01*
G75*
G02*
X41124000Y14798001I0J-249999D01*
G01*
X41124000Y14147999D01*
G75*
G02*
X40874001Y13898000I-249999J0D01*
G01*
G37*
G36*
G01*
X40874001Y11848000D02*
X39973999Y11848000D01*
G75*
G02*
X39724000Y12097999I0J249999D01*
G01*
X39724000Y12748001D01*
G75*
G02*
X39973999Y12998000I249999J0D01*
G01*
X40874001Y12998000D01*
G75*
G02*
X41124000Y12748001I0J-249999D01*
G01*
X41124000Y12097999D01*
G75*
G02*
X40874001Y11848000I-249999J0D01*
G01*
G37*
G36*
G01*
X43414001Y13898000D02*
X42513999Y13898000D01*
G75*
G02*
X42264000Y14147999I0J249999D01*
G01*
X42264000Y14798001D01*
G75*
G02*
X42513999Y15048000I249999J0D01*
G01*
X43414001Y15048000D01*
G75*
G02*
X43664000Y14798001I0J-249999D01*
G01*
X43664000Y14147999D01*
G75*
G02*
X43414001Y13898000I-249999J0D01*
G01*
G37*
G36*
G01*
X43414001Y11848000D02*
X42513999Y11848000D01*
G75*
G02*
X42264000Y12097999I0J249999D01*
G01*
X42264000Y12748001D01*
G75*
G02*
X42513999Y12998000I249999J0D01*
G01*
X43414001Y12998000D01*
G75*
G02*
X43664000Y12748001I0J-249999D01*
G01*
X43664000Y12097999D01*
G75*
G02*
X43414001Y11848000I-249999J0D01*
G01*
G37*
G36*
G01*
X45954001Y13898000D02*
X45053999Y13898000D01*
G75*
G02*
X44804000Y14147999I0J249999D01*
G01*
X44804000Y14798001D01*
G75*
G02*
X45053999Y15048000I249999J0D01*
G01*
X45954001Y15048000D01*
G75*
G02*
X46204000Y14798001I0J-249999D01*
G01*
X46204000Y14147999D01*
G75*
G02*
X45954001Y13898000I-249999J0D01*
G01*
G37*
G36*
G01*
X45954001Y11848000D02*
X45053999Y11848000D01*
G75*
G02*
X44804000Y12097999I0J249999D01*
G01*
X44804000Y12748001D01*
G75*
G02*
X45053999Y12998000I249999J0D01*
G01*
X45954001Y12998000D01*
G75*
G02*
X46204000Y12748001I0J-249999D01*
G01*
X46204000Y12097999D01*
G75*
G02*
X45954001Y11848000I-249999J0D01*
G01*
G37*
G36*
G01*
X1156500Y10927500D02*
X1156500Y11777500D01*
G75*
G02*
X1581500Y12202500I425000J0D01*
G01*
X2431500Y12202500D01*
G75*
G02*
X2856500Y11777500I0J-425000D01*
G01*
X2856500Y10927500D01*
G75*
G02*
X2431500Y10502500I-425000J0D01*
G01*
X1581500Y10502500D01*
G75*
G02*
X1156500Y10927500I0J425000D01*
G01*
G37*
D19*
X59220000Y48500000D03*
X61760000Y48500000D03*
X64300000Y48500000D03*
D13*
X66840000Y48500000D03*
D19*
X73190000Y48500000D03*
X75730000Y48500000D03*
X78270000Y48500000D03*
D13*
X80810000Y48500000D03*
D16*
X70830000Y37180000D03*
X70830000Y36680000D03*
X70830000Y36180000D03*
X70830000Y35680000D03*
X70830000Y35180000D03*
X70830000Y34680000D03*
D20*
X73330000Y32780000D03*
X73330000Y39080000D03*
M02*
