G04 #@! TF.GenerationSoftware,KiCad,Pcbnew,(5.1.10-1-10_14)*
G04 #@! TF.CreationDate,2021-10-20T12:02:30-05:00*
G04 #@! TF.ProjectId,stepper_analyzer,73746570-7065-4725-9f61-6e616c797a65,rev?*
G04 #@! TF.SameCoordinates,Original*
G04 #@! TF.FileFunction,Paste,Top*
G04 #@! TF.FilePolarity,Positive*
%FSLAX46Y46*%
G04 Gerber Fmt 4.6, Leading zero omitted, Abs format (unit mm)*
G04 Created by KiCad (PCBNEW (5.1.10-1-10_14)) date 2021-10-20 12:02:30*
%MOMM*%
%LPD*%
G01*
G04 APERTURE LIST*
%ADD10R,3.500000X1.700000*%
%ADD11R,0.800000X0.900000*%
%ADD12R,3.000000X2.000000*%
%ADD13R,1.300000X0.300000*%
%ADD14R,2.200000X1.800000*%
G04 APERTURE END LIST*
G36*
G01*
X47760001Y4975000D02*
X46859999Y4975000D01*
G75*
G02*
X46610000Y5224999I0J249999D01*
G01*
X46610000Y5875001D01*
G75*
G02*
X46859999Y6125000I249999J0D01*
G01*
X47760001Y6125000D01*
G75*
G02*
X48010000Y5875001I0J-249999D01*
G01*
X48010000Y5224999D01*
G75*
G02*
X47760001Y4975000I-249999J0D01*
G01*
G37*
G36*
G01*
X47760001Y2925000D02*
X46859999Y2925000D01*
G75*
G02*
X46610000Y3174999I0J249999D01*
G01*
X46610000Y3825001D01*
G75*
G02*
X46859999Y4075000I249999J0D01*
G01*
X47760001Y4075000D01*
G75*
G02*
X48010000Y3825001I0J-249999D01*
G01*
X48010000Y3174999D01*
G75*
G02*
X47760001Y2925000I-249999J0D01*
G01*
G37*
D10*
X32790000Y6870000D03*
X32790000Y9410000D03*
X32790000Y11950000D03*
X32790000Y14490000D03*
X32790000Y17030000D03*
X32790000Y19570000D03*
X32790000Y22110000D03*
X32790000Y24650000D03*
X32790000Y27190000D03*
X32790000Y29730000D03*
X32790000Y32270000D03*
X32790000Y34810000D03*
X32790000Y37350000D03*
X32790000Y39890000D03*
X32790000Y42430000D03*
X32790000Y44970000D03*
X32790000Y47510000D03*
X32790000Y50050000D03*
X32790000Y52590000D03*
X32790000Y55130000D03*
X13210000Y6870000D03*
X13210000Y9410000D03*
X13210000Y11950000D03*
X13210000Y14490000D03*
X13210000Y17030000D03*
X13210000Y19570000D03*
X13210000Y22110000D03*
X13210000Y24650000D03*
X13210000Y27190000D03*
X13210000Y29730000D03*
X13210000Y32270000D03*
X13210000Y34810000D03*
X13210000Y37350000D03*
X13210000Y39890000D03*
X13210000Y42430000D03*
X13210000Y44970000D03*
X13210000Y47510000D03*
X13210000Y50050000D03*
X13210000Y52590000D03*
X13210000Y55130000D03*
G36*
G01*
X48367001Y50982000D02*
X47466999Y50982000D01*
G75*
G02*
X47217000Y51231999I0J249999D01*
G01*
X47217000Y51882001D01*
G75*
G02*
X47466999Y52132000I249999J0D01*
G01*
X48367001Y52132000D01*
G75*
G02*
X48617000Y51882001I0J-249999D01*
G01*
X48617000Y51231999D01*
G75*
G02*
X48367001Y50982000I-249999J0D01*
G01*
G37*
G36*
G01*
X48367001Y48932000D02*
X47466999Y48932000D01*
G75*
G02*
X47217000Y49181999I0J249999D01*
G01*
X47217000Y49832001D01*
G75*
G02*
X47466999Y50082000I249999J0D01*
G01*
X48367001Y50082000D01*
G75*
G02*
X48617000Y49832001I0J-249999D01*
G01*
X48617000Y49181999D01*
G75*
G02*
X48367001Y48932000I-249999J0D01*
G01*
G37*
G36*
G01*
X84689001Y46782000D02*
X83788999Y46782000D01*
G75*
G02*
X83539000Y47031999I0J249999D01*
G01*
X83539000Y47682001D01*
G75*
G02*
X83788999Y47932000I249999J0D01*
G01*
X84689001Y47932000D01*
G75*
G02*
X84939000Y47682001I0J-249999D01*
G01*
X84939000Y47031999D01*
G75*
G02*
X84689001Y46782000I-249999J0D01*
G01*
G37*
G36*
G01*
X84689001Y44732000D02*
X83788999Y44732000D01*
G75*
G02*
X83539000Y44981999I0J249999D01*
G01*
X83539000Y45632001D01*
G75*
G02*
X83788999Y45882000I249999J0D01*
G01*
X84689001Y45882000D01*
G75*
G02*
X84939000Y45632001I0J-249999D01*
G01*
X84939000Y44981999D01*
G75*
G02*
X84689001Y44732000I-249999J0D01*
G01*
G37*
G36*
G01*
X50010001Y4975000D02*
X49109999Y4975000D01*
G75*
G02*
X48860000Y5224999I0J249999D01*
G01*
X48860000Y5875001D01*
G75*
G02*
X49109999Y6125000I249999J0D01*
G01*
X50010001Y6125000D01*
G75*
G02*
X50260000Y5875001I0J-249999D01*
G01*
X50260000Y5224999D01*
G75*
G02*
X50010001Y4975000I-249999J0D01*
G01*
G37*
G36*
G01*
X50010001Y2925000D02*
X49109999Y2925000D01*
G75*
G02*
X48860000Y3174999I0J249999D01*
G01*
X48860000Y3825001D01*
G75*
G02*
X49109999Y4075000I249999J0D01*
G01*
X50010001Y4075000D01*
G75*
G02*
X50260000Y3825001I0J-249999D01*
G01*
X50260000Y3174999D01*
G75*
G02*
X50010001Y2925000I-249999J0D01*
G01*
G37*
D11*
X42964000Y9622000D03*
X43914000Y7622000D03*
X42014000Y7622000D03*
G36*
G01*
X44510001Y47450000D02*
X43609999Y47450000D01*
G75*
G02*
X43360000Y47699999I0J249999D01*
G01*
X43360000Y48350001D01*
G75*
G02*
X43609999Y48600000I249999J0D01*
G01*
X44510001Y48600000D01*
G75*
G02*
X44760000Y48350001I0J-249999D01*
G01*
X44760000Y47699999D01*
G75*
G02*
X44510001Y47450000I-249999J0D01*
G01*
G37*
G36*
G01*
X44510001Y45400000D02*
X43609999Y45400000D01*
G75*
G02*
X43360000Y45649999I0J249999D01*
G01*
X43360000Y46300001D01*
G75*
G02*
X43609999Y46550000I249999J0D01*
G01*
X44510001Y46550000D01*
G75*
G02*
X44760000Y46300001I0J-249999D01*
G01*
X44760000Y45649999D01*
G75*
G02*
X44510001Y45400000I-249999J0D01*
G01*
G37*
D12*
X51800000Y40300000D03*
X51800000Y17500000D03*
D13*
X49450000Y19150000D03*
X49450000Y19650000D03*
X49450000Y20150000D03*
X49450000Y20650000D03*
X49450000Y21150000D03*
X49450000Y21650000D03*
X49450000Y22150000D03*
X49450000Y22650000D03*
X49450000Y23150000D03*
X49450000Y23650000D03*
X49450000Y24150000D03*
X49450000Y24650000D03*
X49450000Y25150000D03*
X49450000Y25650000D03*
X49450000Y26150000D03*
X49450000Y26650000D03*
X49450000Y27150000D03*
X49450000Y27650000D03*
X49450000Y28150000D03*
X49450000Y28650000D03*
X49450000Y29150000D03*
X49450000Y29650000D03*
X49450000Y30150000D03*
X49450000Y30650000D03*
X49450000Y31150000D03*
X49450000Y31650000D03*
X49450000Y32150000D03*
X49450000Y32650000D03*
X49450000Y33150000D03*
X49450000Y33650000D03*
X49450000Y34150000D03*
X49450000Y34650000D03*
X49450000Y35150000D03*
X49450000Y35650000D03*
X49450000Y36150000D03*
X49450000Y36650000D03*
X49450000Y37150000D03*
X49450000Y37650000D03*
X49450000Y38150000D03*
X49450000Y38650000D03*
G36*
G01*
X88915000Y50935000D02*
X89215000Y50935000D01*
G75*
G02*
X89365000Y50785000I0J-150000D01*
G01*
X89365000Y49135000D01*
G75*
G02*
X89215000Y48985000I-150000J0D01*
G01*
X88915000Y48985000D01*
G75*
G02*
X88765000Y49135000I0J150000D01*
G01*
X88765000Y50785000D01*
G75*
G02*
X88915000Y50935000I150000J0D01*
G01*
G37*
G36*
G01*
X87645000Y50935000D02*
X87945000Y50935000D01*
G75*
G02*
X88095000Y50785000I0J-150000D01*
G01*
X88095000Y49135000D01*
G75*
G02*
X87945000Y48985000I-150000J0D01*
G01*
X87645000Y48985000D01*
G75*
G02*
X87495000Y49135000I0J150000D01*
G01*
X87495000Y50785000D01*
G75*
G02*
X87645000Y50935000I150000J0D01*
G01*
G37*
G36*
G01*
X86375000Y50935000D02*
X86675000Y50935000D01*
G75*
G02*
X86825000Y50785000I0J-150000D01*
G01*
X86825000Y49135000D01*
G75*
G02*
X86675000Y48985000I-150000J0D01*
G01*
X86375000Y48985000D01*
G75*
G02*
X86225000Y49135000I0J150000D01*
G01*
X86225000Y50785000D01*
G75*
G02*
X86375000Y50935000I150000J0D01*
G01*
G37*
G36*
G01*
X85105000Y50935000D02*
X85405000Y50935000D01*
G75*
G02*
X85555000Y50785000I0J-150000D01*
G01*
X85555000Y49135000D01*
G75*
G02*
X85405000Y48985000I-150000J0D01*
G01*
X85105000Y48985000D01*
G75*
G02*
X84955000Y49135000I0J150000D01*
G01*
X84955000Y50785000D01*
G75*
G02*
X85105000Y50935000I150000J0D01*
G01*
G37*
G36*
G01*
X85105000Y55885000D02*
X85405000Y55885000D01*
G75*
G02*
X85555000Y55735000I0J-150000D01*
G01*
X85555000Y54085000D01*
G75*
G02*
X85405000Y53935000I-150000J0D01*
G01*
X85105000Y53935000D01*
G75*
G02*
X84955000Y54085000I0J150000D01*
G01*
X84955000Y55735000D01*
G75*
G02*
X85105000Y55885000I150000J0D01*
G01*
G37*
G36*
G01*
X86375000Y55885000D02*
X86675000Y55885000D01*
G75*
G02*
X86825000Y55735000I0J-150000D01*
G01*
X86825000Y54085000D01*
G75*
G02*
X86675000Y53935000I-150000J0D01*
G01*
X86375000Y53935000D01*
G75*
G02*
X86225000Y54085000I0J150000D01*
G01*
X86225000Y55735000D01*
G75*
G02*
X86375000Y55885000I150000J0D01*
G01*
G37*
G36*
G01*
X87645000Y55885000D02*
X87945000Y55885000D01*
G75*
G02*
X88095000Y55735000I0J-150000D01*
G01*
X88095000Y54085000D01*
G75*
G02*
X87945000Y53935000I-150000J0D01*
G01*
X87645000Y53935000D01*
G75*
G02*
X87495000Y54085000I0J150000D01*
G01*
X87495000Y55735000D01*
G75*
G02*
X87645000Y55885000I150000J0D01*
G01*
G37*
G36*
G01*
X88915000Y55885000D02*
X89215000Y55885000D01*
G75*
G02*
X89365000Y55735000I0J-150000D01*
G01*
X89365000Y54085000D01*
G75*
G02*
X89215000Y53935000I-150000J0D01*
G01*
X88915000Y53935000D01*
G75*
G02*
X88765000Y54085000I0J150000D01*
G01*
X88765000Y55735000D01*
G75*
G02*
X88915000Y55885000I150000J0D01*
G01*
G37*
G36*
G01*
X54625000Y50935000D02*
X54925000Y50935000D01*
G75*
G02*
X55075000Y50785000I0J-150000D01*
G01*
X55075000Y49135000D01*
G75*
G02*
X54925000Y48985000I-150000J0D01*
G01*
X54625000Y48985000D01*
G75*
G02*
X54475000Y49135000I0J150000D01*
G01*
X54475000Y50785000D01*
G75*
G02*
X54625000Y50935000I150000J0D01*
G01*
G37*
G36*
G01*
X53355000Y50935000D02*
X53655000Y50935000D01*
G75*
G02*
X53805000Y50785000I0J-150000D01*
G01*
X53805000Y49135000D01*
G75*
G02*
X53655000Y48985000I-150000J0D01*
G01*
X53355000Y48985000D01*
G75*
G02*
X53205000Y49135000I0J150000D01*
G01*
X53205000Y50785000D01*
G75*
G02*
X53355000Y50935000I150000J0D01*
G01*
G37*
G36*
G01*
X52085000Y50935000D02*
X52385000Y50935000D01*
G75*
G02*
X52535000Y50785000I0J-150000D01*
G01*
X52535000Y49135000D01*
G75*
G02*
X52385000Y48985000I-150000J0D01*
G01*
X52085000Y48985000D01*
G75*
G02*
X51935000Y49135000I0J150000D01*
G01*
X51935000Y50785000D01*
G75*
G02*
X52085000Y50935000I150000J0D01*
G01*
G37*
G36*
G01*
X50815000Y50935000D02*
X51115000Y50935000D01*
G75*
G02*
X51265000Y50785000I0J-150000D01*
G01*
X51265000Y49135000D01*
G75*
G02*
X51115000Y48985000I-150000J0D01*
G01*
X50815000Y48985000D01*
G75*
G02*
X50665000Y49135000I0J150000D01*
G01*
X50665000Y50785000D01*
G75*
G02*
X50815000Y50935000I150000J0D01*
G01*
G37*
G36*
G01*
X50815000Y55885000D02*
X51115000Y55885000D01*
G75*
G02*
X51265000Y55735000I0J-150000D01*
G01*
X51265000Y54085000D01*
G75*
G02*
X51115000Y53935000I-150000J0D01*
G01*
X50815000Y53935000D01*
G75*
G02*
X50665000Y54085000I0J150000D01*
G01*
X50665000Y55735000D01*
G75*
G02*
X50815000Y55885000I150000J0D01*
G01*
G37*
G36*
G01*
X52085000Y55885000D02*
X52385000Y55885000D01*
G75*
G02*
X52535000Y55735000I0J-150000D01*
G01*
X52535000Y54085000D01*
G75*
G02*
X52385000Y53935000I-150000J0D01*
G01*
X52085000Y53935000D01*
G75*
G02*
X51935000Y54085000I0J150000D01*
G01*
X51935000Y55735000D01*
G75*
G02*
X52085000Y55885000I150000J0D01*
G01*
G37*
G36*
G01*
X53355000Y55885000D02*
X53655000Y55885000D01*
G75*
G02*
X53805000Y55735000I0J-150000D01*
G01*
X53805000Y54085000D01*
G75*
G02*
X53655000Y53935000I-150000J0D01*
G01*
X53355000Y53935000D01*
G75*
G02*
X53205000Y54085000I0J150000D01*
G01*
X53205000Y55735000D01*
G75*
G02*
X53355000Y55885000I150000J0D01*
G01*
G37*
G36*
G01*
X54625000Y55885000D02*
X54925000Y55885000D01*
G75*
G02*
X55075000Y55735000I0J-150000D01*
G01*
X55075000Y54085000D01*
G75*
G02*
X54925000Y53935000I-150000J0D01*
G01*
X54625000Y53935000D01*
G75*
G02*
X54475000Y54085000I0J150000D01*
G01*
X54475000Y55735000D01*
G75*
G02*
X54625000Y55885000I150000J0D01*
G01*
G37*
G36*
G01*
X88499000Y46017999D02*
X88499000Y46918001D01*
G75*
G02*
X88748999Y47168000I249999J0D01*
G01*
X89399001Y47168000D01*
G75*
G02*
X89649000Y46918001I0J-249999D01*
G01*
X89649000Y46017999D01*
G75*
G02*
X89399001Y45768000I-249999J0D01*
G01*
X88748999Y45768000D01*
G75*
G02*
X88499000Y46017999I0J249999D01*
G01*
G37*
G36*
G01*
X86449000Y46017999D02*
X86449000Y46918001D01*
G75*
G02*
X86698999Y47168000I249999J0D01*
G01*
X87349001Y47168000D01*
G75*
G02*
X87599000Y46918001I0J-249999D01*
G01*
X87599000Y46017999D01*
G75*
G02*
X87349001Y45768000I-249999J0D01*
G01*
X86698999Y45768000D01*
G75*
G02*
X86449000Y46017999I0J249999D01*
G01*
G37*
G36*
G01*
X52676000Y46398999D02*
X52676000Y47299001D01*
G75*
G02*
X52925999Y47549000I249999J0D01*
G01*
X53576001Y47549000D01*
G75*
G02*
X53826000Y47299001I0J-249999D01*
G01*
X53826000Y46398999D01*
G75*
G02*
X53576001Y46149000I-249999J0D01*
G01*
X52925999Y46149000D01*
G75*
G02*
X52676000Y46398999I0J249999D01*
G01*
G37*
G36*
G01*
X50626000Y46398999D02*
X50626000Y47299001D01*
G75*
G02*
X50875999Y47549000I249999J0D01*
G01*
X51526001Y47549000D01*
G75*
G02*
X51776000Y47299001I0J-249999D01*
G01*
X51776000Y46398999D01*
G75*
G02*
X51526001Y46149000I-249999J0D01*
G01*
X50875999Y46149000D01*
G75*
G02*
X50626000Y46398999I0J249999D01*
G01*
G37*
G36*
G01*
X40874001Y13898000D02*
X39973999Y13898000D01*
G75*
G02*
X39724000Y14147999I0J249999D01*
G01*
X39724000Y14798001D01*
G75*
G02*
X39973999Y15048000I249999J0D01*
G01*
X40874001Y15048000D01*
G75*
G02*
X41124000Y14798001I0J-249999D01*
G01*
X41124000Y14147999D01*
G75*
G02*
X40874001Y13898000I-249999J0D01*
G01*
G37*
G36*
G01*
X40874001Y11848000D02*
X39973999Y11848000D01*
G75*
G02*
X39724000Y12097999I0J249999D01*
G01*
X39724000Y12748001D01*
G75*
G02*
X39973999Y12998000I249999J0D01*
G01*
X40874001Y12998000D01*
G75*
G02*
X41124000Y12748001I0J-249999D01*
G01*
X41124000Y12097999D01*
G75*
G02*
X40874001Y11848000I-249999J0D01*
G01*
G37*
G36*
G01*
X43414001Y13898000D02*
X42513999Y13898000D01*
G75*
G02*
X42264000Y14147999I0J249999D01*
G01*
X42264000Y14798001D01*
G75*
G02*
X42513999Y15048000I249999J0D01*
G01*
X43414001Y15048000D01*
G75*
G02*
X43664000Y14798001I0J-249999D01*
G01*
X43664000Y14147999D01*
G75*
G02*
X43414001Y13898000I-249999J0D01*
G01*
G37*
G36*
G01*
X43414001Y11848000D02*
X42513999Y11848000D01*
G75*
G02*
X42264000Y12097999I0J249999D01*
G01*
X42264000Y12748001D01*
G75*
G02*
X42513999Y12998000I249999J0D01*
G01*
X43414001Y12998000D01*
G75*
G02*
X43664000Y12748001I0J-249999D01*
G01*
X43664000Y12097999D01*
G75*
G02*
X43414001Y11848000I-249999J0D01*
G01*
G37*
G36*
G01*
X45954001Y13898000D02*
X45053999Y13898000D01*
G75*
G02*
X44804000Y14147999I0J249999D01*
G01*
X44804000Y14798001D01*
G75*
G02*
X45053999Y15048000I249999J0D01*
G01*
X45954001Y15048000D01*
G75*
G02*
X46204000Y14798001I0J-249999D01*
G01*
X46204000Y14147999D01*
G75*
G02*
X45954001Y13898000I-249999J0D01*
G01*
G37*
G36*
G01*
X45954001Y11848000D02*
X45053999Y11848000D01*
G75*
G02*
X44804000Y12097999I0J249999D01*
G01*
X44804000Y12748001D01*
G75*
G02*
X45053999Y12998000I249999J0D01*
G01*
X45954001Y12998000D01*
G75*
G02*
X46204000Y12748001I0J-249999D01*
G01*
X46204000Y12097999D01*
G75*
G02*
X45954001Y11848000I-249999J0D01*
G01*
G37*
X70830000Y37180000D03*
X70830000Y36680000D03*
X70830000Y36180000D03*
X70830000Y35680000D03*
X70830000Y35180000D03*
X70830000Y34680000D03*
D14*
X73330000Y32780000D03*
X73330000Y39080000D03*
M02*
