M48
INCH,TZ
T1C0.0157
T2C0.0160
T3C0.0197
T4C0.0240
T5C0.0300
T6C0.0350
T7C0.0394
T8C0.0984
%
G90
G05
T1
X16815Y16594
T2
X6803Y17705
X13409Y5807
X14165Y9094
X14215Y15194
X14427Y14757
X14965Y14744
X15315Y14394
X15865Y16869
X16315Y16644
X17115Y16244
X18619Y9158
X18626Y1378
X18934Y12744
X18949Y14551
X19665Y19744
X19984Y13644
X20034Y12269
X23744Y5335
X23744Y4311
X24335Y6102
X24827Y5335
X24827Y4311
X25417Y3642
X25909Y5335
X25909Y4311
X27883Y15128
X33865Y18944
T3
X49Y21260
X49Y1181
X265Y21782
X265Y20738
X265Y1703
X265Y659
X787Y21998
X787Y20522
X787Y1919
X787Y443
X1309Y21782
X1309Y20738
X1309Y1703
X1309Y659
X1526Y21260
X1526Y1181
X37844Y21260
X37844Y1181
X38061Y21782
X38061Y20738
X38061Y1703
X38061Y659
X38583Y21998
X38583Y20522
X38583Y1919
X38583Y443
X39105Y21782
X39105Y20738
X39105Y1703
X39105Y659
X39321Y21260
X39321Y1181
T4
X5555Y19705
X5555Y14705
X5555Y9705
X5555Y4705
X12555Y19705
X12555Y14705
X12555Y9705
X12555Y4705
T5
X16657Y18110
X17915Y2994
X18709Y7794
X19465Y19019
X21990Y19019
X22993Y21618
X23850Y21618
X29970Y20900
X30715Y20900
T6
X23315Y19094
X24315Y19094
X25315Y19094
X26315Y19094
X28815Y19094
X29815Y19094
X30815Y19094
X31815Y19094
T7
X790Y4469
T8
X787Y21260
X787Y1181
X38583Y21260
X38583Y1181
T0
M30
