G04 #@! TF.GenerationSoftware,KiCad,Pcbnew,(5.1.10-1-10_14)*
G04 #@! TF.CreationDate,2021-10-20T12:02:30-05:00*
G04 #@! TF.ProjectId,stepper_analyzer,73746570-7065-4725-9f61-6e616c797a65,rev?*
G04 #@! TF.SameCoordinates,Original*
G04 #@! TF.FileFunction,Profile,NP*
%FSLAX46Y46*%
G04 Gerber Fmt 4.6, Leading zero omitted, Abs format (unit mm)*
G04 Created by KiCad (PCBNEW (5.1.10-1-10_14)) date 2021-10-20 12:02:30*
%MOMM*%
%LPD*%
G01*
G04 APERTURE LIST*
G04 #@! TA.AperFunction,Profile*
%ADD10C,0.050000*%
G04 #@! TD*
G04 APERTURE END LIST*
D10*
X66500000Y39500000D02*
X66500000Y17500000D01*
X62000000Y17000000D02*
X66000000Y17000000D01*
X61500000Y39500000D02*
X61500000Y17500000D01*
X62000000Y40000000D02*
X66000000Y40000000D01*
X66500000Y17500000D02*
G75*
G02*
X66000000Y17000000I-500000J0D01*
G01*
X62000000Y17000000D02*
G75*
G02*
X61500000Y17500000I0J500000D01*
G01*
X61500000Y39500000D02*
G75*
G02*
X62000000Y40000000I500000J0D01*
G01*
X66000000Y40000000D02*
G75*
G02*
X66500000Y39500000I0J-500000D01*
G01*
X90500000Y43000000D02*
X94500000Y43000000D01*
X90000000Y42500000D02*
X90000000Y29500000D01*
X95000000Y42500000D02*
X95000000Y29500000D01*
X90500000Y29000000D02*
X94500000Y29000000D01*
X95000000Y29500000D02*
G75*
G02*
X94500000Y29000000I-500000J0D01*
G01*
X90500000Y29000000D02*
G75*
G02*
X90000000Y29500000I0J500000D01*
G01*
X94500000Y43000000D02*
G75*
G02*
X95000000Y42500000I0J-500000D01*
G01*
X90000000Y42500000D02*
G75*
G02*
X90500000Y43000000I500000J0D01*
G01*
X2000000Y0D02*
G75*
G02*
X-1000000Y3000000I0J3000000D01*
G01*
X101000000Y3000000D02*
G75*
G02*
X98000000Y0I-3000000J0D01*
G01*
X-1000000Y54000000D02*
G75*
G02*
X2000000Y57000000I3000000J0D01*
G01*
X98000000Y57000000D02*
G75*
G02*
X101000000Y54000000I0J-3000000D01*
G01*
X101000000Y3000000D02*
X101000000Y54000000D01*
X2000000Y57000000D02*
X98000000Y57000000D01*
X2000000Y0D02*
X98000000Y0D01*
X-1000000Y3000000D02*
X-1000000Y54000000D01*
M02*
