G04 #@! TF.GenerationSoftware,KiCad,Pcbnew,(5.1.10-1-10_14)*
G04 #@! TF.CreationDate,2021-10-20T12:02:30-05:00*
G04 #@! TF.ProjectId,stepper_analyzer,73746570-7065-4725-9f61-6e616c797a65,rev?*
G04 #@! TF.SameCoordinates,Original*
G04 #@! TF.FileFunction,Legend,Bot*
G04 #@! TF.FilePolarity,Positive*
%FSLAX46Y46*%
G04 Gerber Fmt 4.6, Leading zero omitted, Abs format (unit mm)*
G04 Created by KiCad (PCBNEW (5.1.10-1-10_14)) date 2021-10-20 12:02:30*
%MOMM*%
%LPD*%
G01*
G04 APERTURE LIST*
%ADD10C,0.203200*%
%ADD11C,0.120000*%
%ADD12C,0.152400*%
%ADD13C,0.200000*%
G04 APERTURE END LIST*
D10*
X94500000Y29000000D02*
X94500000Y0D01*
D11*
X11810000Y36750000D02*
X11810000Y21750000D01*
X21810000Y36750000D02*
X11810000Y36750000D01*
X21810000Y21750000D02*
X21810000Y36750000D01*
X11810000Y21750000D02*
X21810000Y21750000D01*
D12*
X55699035Y14797619D02*
X56270463Y14797619D01*
X55984749Y14797619D02*
X55984749Y15797619D01*
X56079987Y15654761D01*
X56175225Y15559523D01*
X56270463Y15511904D01*
X54794273Y15797619D02*
X55270463Y15797619D01*
X55318082Y15321428D01*
X55270463Y15369047D01*
X55175225Y15416666D01*
X54937130Y15416666D01*
X54841892Y15369047D01*
X54794273Y15321428D01*
X54746654Y15226190D01*
X54746654Y14988095D01*
X54794273Y14892857D01*
X54841892Y14845238D01*
X54937130Y14797619D01*
X55175225Y14797619D01*
X55270463Y14845238D01*
X55318082Y14892857D01*
X54413320Y14797619D02*
X53889511Y15464285D01*
X54413320Y15464285D02*
X53889511Y14797619D01*
X52984749Y14797619D02*
X53556178Y14797619D01*
X53270463Y14797619D02*
X53270463Y15797619D01*
X53365701Y15654761D01*
X53460940Y15559523D01*
X53556178Y15511904D01*
X52365701Y15797619D02*
X52270463Y15797619D01*
X52175225Y15750000D01*
X52127606Y15702380D01*
X52079987Y15607142D01*
X52032368Y15416666D01*
X52032368Y15178571D01*
X52079987Y14988095D01*
X52127606Y14892857D01*
X52175225Y14845238D01*
X52270463Y14797619D01*
X52365701Y14797619D01*
X52460940Y14845238D01*
X52508559Y14892857D01*
X52556178Y14988095D01*
X52603797Y15178571D01*
X52603797Y15416666D01*
X52556178Y15607142D01*
X52508559Y15702380D01*
X52460940Y15750000D01*
X52365701Y15797619D01*
X51603797Y14797619D02*
X51603797Y15464285D01*
X51603797Y15369047D02*
X51556178Y15416666D01*
X51460940Y15464285D01*
X51318082Y15464285D01*
X51222844Y15416666D01*
X51175225Y15321428D01*
X51175225Y14797619D01*
X51175225Y15321428D02*
X51127606Y15416666D01*
X51032368Y15464285D01*
X50889511Y15464285D01*
X50794273Y15416666D01*
X50746654Y15321428D01*
X50746654Y14797619D01*
X50270463Y14797619D02*
X50270463Y15464285D01*
X50270463Y15369047D02*
X50222844Y15416666D01*
X50127606Y15464285D01*
X49984749Y15464285D01*
X49889511Y15416666D01*
X49841892Y15321428D01*
X49841892Y14797619D01*
X49841892Y15321428D02*
X49794273Y15416666D01*
X49699035Y15464285D01*
X49556178Y15464285D01*
X49460940Y15416666D01*
X49413320Y15321428D01*
X49413320Y14797619D01*
D11*
X57060000Y24250000D02*
X42060000Y24250000D01*
X42060000Y14250000D02*
X57060000Y14250000D01*
X42060000Y24250000D02*
X42060000Y14250000D01*
X57060000Y14250000D02*
X57060000Y24250000D01*
D12*
X19449035Y22797619D02*
X20020463Y22797619D01*
X19734749Y22797619D02*
X19734749Y23797619D01*
X19829987Y23654761D01*
X19925225Y23559523D01*
X20020463Y23511904D01*
X18544273Y23797619D02*
X19020463Y23797619D01*
X19068082Y23321428D01*
X19020463Y23369047D01*
X18925225Y23416666D01*
X18687130Y23416666D01*
X18591892Y23369047D01*
X18544273Y23321428D01*
X18496654Y23226190D01*
X18496654Y22988095D01*
X18544273Y22892857D01*
X18591892Y22845238D01*
X18687130Y22797619D01*
X18925225Y22797619D01*
X19020463Y22845238D01*
X19068082Y22892857D01*
X18163320Y22797619D02*
X17639511Y23464285D01*
X18163320Y23464285D02*
X17639511Y22797619D01*
X16734749Y22797619D02*
X17306178Y22797619D01*
X17020463Y22797619D02*
X17020463Y23797619D01*
X17115701Y23654761D01*
X17210940Y23559523D01*
X17306178Y23511904D01*
X16115701Y23797619D02*
X16020463Y23797619D01*
X15925225Y23750000D01*
X15877606Y23702380D01*
X15829987Y23607142D01*
X15782368Y23416666D01*
X15782368Y23178571D01*
X15829987Y22988095D01*
X15877606Y22892857D01*
X15925225Y22845238D01*
X16020463Y22797619D01*
X16115701Y22797619D01*
X16210940Y22845238D01*
X16258559Y22892857D01*
X16306178Y22988095D01*
X16353797Y23178571D01*
X16353797Y23416666D01*
X16306178Y23607142D01*
X16258559Y23702380D01*
X16210940Y23750000D01*
X16115701Y23797619D01*
X15353797Y22797619D02*
X15353797Y23464285D01*
X15353797Y23369047D02*
X15306178Y23416666D01*
X15210940Y23464285D01*
X15068082Y23464285D01*
X14972844Y23416666D01*
X14925225Y23321428D01*
X14925225Y22797619D01*
X14925225Y23321428D02*
X14877606Y23416666D01*
X14782368Y23464285D01*
X14639511Y23464285D01*
X14544273Y23416666D01*
X14496654Y23321428D01*
X14496654Y22797619D01*
X14020463Y22797619D02*
X14020463Y23464285D01*
X14020463Y23369047D02*
X13972844Y23416666D01*
X13877606Y23464285D01*
X13734749Y23464285D01*
X13639511Y23416666D01*
X13591892Y23321428D01*
X13591892Y22797619D01*
X13591892Y23321428D02*
X13544273Y23416666D01*
X13449035Y23464285D01*
X13306178Y23464285D01*
X13210940Y23416666D01*
X13163320Y23321428D01*
X13163320Y22797619D01*
X81068082Y2047619D02*
X80401416Y2047619D01*
X80829987Y1047619D01*
X79544273Y2047619D02*
X80020463Y2047619D01*
X80068082Y1571428D01*
X80020463Y1619047D01*
X79925225Y1666666D01*
X79687130Y1666666D01*
X79591892Y1619047D01*
X79544273Y1571428D01*
X79496654Y1476190D01*
X79496654Y1238095D01*
X79544273Y1142857D01*
X79591892Y1095238D01*
X79687130Y1047619D01*
X79925225Y1047619D01*
X80020463Y1095238D01*
X80068082Y1142857D01*
X79163320Y1047619D02*
X78639511Y1714285D01*
X79163320Y1714285D02*
X78639511Y1047619D01*
X77734749Y1047619D02*
X78306178Y1047619D01*
X78020463Y1047619D02*
X78020463Y2047619D01*
X78115701Y1904761D01*
X78210940Y1809523D01*
X78306178Y1761904D01*
X77115701Y2047619D02*
X77020463Y2047619D01*
X76925225Y2000000D01*
X76877606Y1952380D01*
X76829987Y1857142D01*
X76782368Y1666666D01*
X76782368Y1428571D01*
X76829987Y1238095D01*
X76877606Y1142857D01*
X76925225Y1095238D01*
X77020463Y1047619D01*
X77115701Y1047619D01*
X77210940Y1095238D01*
X77258559Y1142857D01*
X77306178Y1238095D01*
X77353797Y1428571D01*
X77353797Y1666666D01*
X77306178Y1857142D01*
X77258559Y1952380D01*
X77210940Y2000000D01*
X77115701Y2047619D01*
X76353797Y1047619D02*
X76353797Y1714285D01*
X76353797Y1619047D02*
X76306178Y1666666D01*
X76210940Y1714285D01*
X76068082Y1714285D01*
X75972844Y1666666D01*
X75925225Y1571428D01*
X75925225Y1047619D01*
X75925225Y1571428D02*
X75877606Y1666666D01*
X75782368Y1714285D01*
X75639511Y1714285D01*
X75544273Y1666666D01*
X75496654Y1571428D01*
X75496654Y1047619D01*
X75020463Y1047619D02*
X75020463Y1714285D01*
X75020463Y1619047D02*
X74972844Y1666666D01*
X74877606Y1714285D01*
X74734749Y1714285D01*
X74639511Y1666666D01*
X74591892Y1571428D01*
X74591892Y1047619D01*
X74591892Y1571428D02*
X74544273Y1666666D01*
X74449035Y1714285D01*
X74306178Y1714285D01*
X74210940Y1666666D01*
X74163320Y1571428D01*
X74163320Y1047619D01*
X91829987Y47619047D02*
X91925225Y47666666D01*
X91972844Y47714285D01*
X92020463Y47809523D01*
X92020463Y47857142D01*
X91972844Y47952380D01*
X91925225Y48000000D01*
X91829987Y48047619D01*
X91639511Y48047619D01*
X91544273Y48000000D01*
X91496654Y47952380D01*
X91449035Y47857142D01*
X91449035Y47809523D01*
X91496654Y47714285D01*
X91544273Y47666666D01*
X91639511Y47619047D01*
X91829987Y47619047D01*
X91925225Y47571428D01*
X91972844Y47523809D01*
X92020463Y47428571D01*
X92020463Y47238095D01*
X91972844Y47142857D01*
X91925225Y47095238D01*
X91829987Y47047619D01*
X91639511Y47047619D01*
X91544273Y47095238D01*
X91496654Y47142857D01*
X91449035Y47238095D01*
X91449035Y47428571D01*
X91496654Y47523809D01*
X91544273Y47571428D01*
X91639511Y47619047D01*
X90591892Y48047619D02*
X90782368Y48047619D01*
X90877606Y48000000D01*
X90925225Y47952380D01*
X91020463Y47809523D01*
X91068082Y47619047D01*
X91068082Y47238095D01*
X91020463Y47142857D01*
X90972844Y47095238D01*
X90877606Y47047619D01*
X90687130Y47047619D01*
X90591892Y47095238D01*
X90544273Y47142857D01*
X90496654Y47238095D01*
X90496654Y47476190D01*
X90544273Y47571428D01*
X90591892Y47619047D01*
X90687130Y47666666D01*
X90877606Y47666666D01*
X90972844Y47619047D01*
X91020463Y47571428D01*
X91068082Y47476190D01*
X90163320Y47047619D02*
X89639511Y47714285D01*
X90163320Y47714285D02*
X89639511Y47047619D01*
X88734749Y47047619D02*
X89306178Y47047619D01*
X89020463Y47047619D02*
X89020463Y48047619D01*
X89115701Y47904761D01*
X89210940Y47809523D01*
X89306178Y47761904D01*
X88115701Y48047619D02*
X88020463Y48047619D01*
X87925225Y48000000D01*
X87877606Y47952380D01*
X87829987Y47857142D01*
X87782368Y47666666D01*
X87782368Y47428571D01*
X87829987Y47238095D01*
X87877606Y47142857D01*
X87925225Y47095238D01*
X88020463Y47047619D01*
X88115701Y47047619D01*
X88210940Y47095238D01*
X88258559Y47142857D01*
X88306178Y47238095D01*
X88353797Y47428571D01*
X88353797Y47666666D01*
X88306178Y47857142D01*
X88258559Y47952380D01*
X88210940Y48000000D01*
X88115701Y48047619D01*
X87353797Y47047619D02*
X87353797Y47714285D01*
X87353797Y47619047D02*
X87306178Y47666666D01*
X87210940Y47714285D01*
X87068082Y47714285D01*
X86972844Y47666666D01*
X86925225Y47571428D01*
X86925225Y47047619D01*
X86925225Y47571428D02*
X86877606Y47666666D01*
X86782368Y47714285D01*
X86639511Y47714285D01*
X86544273Y47666666D01*
X86496654Y47571428D01*
X86496654Y47047619D01*
X86020463Y47047619D02*
X86020463Y47714285D01*
X86020463Y47619047D02*
X85972844Y47666666D01*
X85877606Y47714285D01*
X85734749Y47714285D01*
X85639511Y47666666D01*
X85591892Y47571428D01*
X85591892Y47047619D01*
X85591892Y47571428D02*
X85544273Y47666666D01*
X85449035Y47714285D01*
X85306178Y47714285D01*
X85210940Y47666666D01*
X85163320Y47571428D01*
X85163320Y47047619D01*
X46449035Y35047619D02*
X47020463Y35047619D01*
X46734749Y35047619D02*
X46734749Y36047619D01*
X46829987Y35904761D01*
X46925225Y35809523D01*
X47020463Y35761904D01*
X45544273Y36047619D02*
X46020463Y36047619D01*
X46068082Y35571428D01*
X46020463Y35619047D01*
X45925225Y35666666D01*
X45687130Y35666666D01*
X45591892Y35619047D01*
X45544273Y35571428D01*
X45496654Y35476190D01*
X45496654Y35238095D01*
X45544273Y35142857D01*
X45591892Y35095238D01*
X45687130Y35047619D01*
X45925225Y35047619D01*
X46020463Y35095238D01*
X46068082Y35142857D01*
X45163320Y35047619D02*
X44639511Y35714285D01*
X45163320Y35714285D02*
X44639511Y35047619D01*
X43734749Y35047619D02*
X44306178Y35047619D01*
X44020463Y35047619D02*
X44020463Y36047619D01*
X44115701Y35904761D01*
X44210940Y35809523D01*
X44306178Y35761904D01*
X43115701Y36047619D02*
X43020463Y36047619D01*
X42925225Y36000000D01*
X42877606Y35952380D01*
X42829987Y35857142D01*
X42782368Y35666666D01*
X42782368Y35428571D01*
X42829987Y35238095D01*
X42877606Y35142857D01*
X42925225Y35095238D01*
X43020463Y35047619D01*
X43115701Y35047619D01*
X43210940Y35095238D01*
X43258559Y35142857D01*
X43306178Y35238095D01*
X43353797Y35428571D01*
X43353797Y35666666D01*
X43306178Y35857142D01*
X43258559Y35952380D01*
X43210940Y36000000D01*
X43115701Y36047619D01*
X42353797Y35047619D02*
X42353797Y35714285D01*
X42353797Y35619047D02*
X42306178Y35666666D01*
X42210940Y35714285D01*
X42068082Y35714285D01*
X41972844Y35666666D01*
X41925225Y35571428D01*
X41925225Y35047619D01*
X41925225Y35571428D02*
X41877606Y35666666D01*
X41782368Y35714285D01*
X41639511Y35714285D01*
X41544273Y35666666D01*
X41496654Y35571428D01*
X41496654Y35047619D01*
X41020463Y35047619D02*
X41020463Y35714285D01*
X41020463Y35619047D02*
X40972844Y35666666D01*
X40877606Y35714285D01*
X40734749Y35714285D01*
X40639511Y35666666D01*
X40591892Y35571428D01*
X40591892Y35047619D01*
X40591892Y35571428D02*
X40544273Y35666666D01*
X40449035Y35714285D01*
X40306178Y35714285D01*
X40210940Y35666666D01*
X40163320Y35571428D01*
X40163320Y35047619D01*
D11*
X32810000Y44500000D02*
X32810000Y34500000D01*
X47810000Y44500000D02*
X32810000Y44500000D01*
X47810000Y34500000D02*
X47810000Y44500000D01*
X32810000Y34500000D02*
X47810000Y34500000D01*
X6810000Y10500000D02*
X6810000Y500000D01*
X81810000Y10500000D02*
X6810000Y10500000D01*
X81810000Y500000D02*
X81810000Y10500000D01*
X6810000Y500000D02*
X81810000Y500000D01*
X7160000Y46500000D02*
X7160000Y56500000D01*
X93060000Y46500000D02*
X7160000Y46500000D01*
X93060000Y56500000D02*
X93060000Y46500000D01*
X7160000Y56500000D02*
X93060000Y56500000D01*
D12*
X91365701Y25504819D02*
X90794273Y25504819D01*
X91079987Y24504819D02*
X91079987Y25504819D01*
X90460940Y24504819D02*
X90460940Y25504819D01*
X90032368Y24504819D02*
X90032368Y25028628D01*
X90079987Y25123866D01*
X90175225Y25171485D01*
X90318082Y25171485D01*
X90413320Y25123866D01*
X90460940Y25076247D01*
X89175225Y24552438D02*
X89270463Y24504819D01*
X89460940Y24504819D01*
X89556178Y24552438D01*
X89603797Y24647676D01*
X89603797Y25028628D01*
X89556178Y25123866D01*
X89460940Y25171485D01*
X89270463Y25171485D01*
X89175225Y25123866D01*
X89127606Y25028628D01*
X89127606Y24933390D01*
X89603797Y24838152D01*
X87556178Y24552438D02*
X87651416Y24504819D01*
X87841892Y24504819D01*
X87937130Y24552438D01*
X87984749Y24647676D01*
X87984749Y25028628D01*
X87937130Y25123866D01*
X87841892Y25171485D01*
X87651416Y25171485D01*
X87556178Y25123866D01*
X87508559Y25028628D01*
X87508559Y24933390D01*
X87984749Y24838152D01*
X87079987Y25171485D02*
X87079987Y24504819D01*
X87079987Y25076247D02*
X87032368Y25123866D01*
X86937130Y25171485D01*
X86794273Y25171485D01*
X86699035Y25123866D01*
X86651416Y25028628D01*
X86651416Y24504819D01*
X86318082Y25171485D02*
X85937130Y25171485D01*
X86175225Y25504819D02*
X86175225Y24647676D01*
X86127606Y24552438D01*
X86032368Y24504819D01*
X85937130Y24504819D01*
X85603797Y24504819D02*
X85603797Y25171485D01*
X85603797Y25504819D02*
X85651416Y25457200D01*
X85603797Y25409580D01*
X85556178Y25457200D01*
X85603797Y25504819D01*
X85603797Y25409580D01*
X85127606Y24504819D02*
X85127606Y25171485D01*
X85127606Y24981009D02*
X85079987Y25076247D01*
X85032368Y25123866D01*
X84937130Y25171485D01*
X84841892Y25171485D01*
X84127606Y24552438D02*
X84222844Y24504819D01*
X84413320Y24504819D01*
X84508559Y24552438D01*
X84556178Y24647676D01*
X84556178Y25028628D01*
X84508559Y25123866D01*
X84413320Y25171485D01*
X84222844Y25171485D01*
X84127606Y25123866D01*
X84079987Y25028628D01*
X84079987Y24933390D01*
X84556178Y24838152D01*
X83032368Y25504819D02*
X82460940Y25504819D01*
X82746654Y24504819D02*
X82746654Y25504819D01*
X81794273Y25028628D02*
X82127606Y25028628D01*
X82127606Y24504819D02*
X82127606Y25504819D01*
X81651416Y25504819D01*
X81413320Y25504819D02*
X80841892Y25504819D01*
X81127606Y24504819D02*
X81127606Y25504819D01*
X79318082Y24504819D02*
X79318082Y25028628D01*
X79365701Y25123866D01*
X79460940Y25171485D01*
X79651416Y25171485D01*
X79746654Y25123866D01*
X79318082Y24552438D02*
X79413320Y24504819D01*
X79651416Y24504819D01*
X79746654Y24552438D01*
X79794273Y24647676D01*
X79794273Y24742914D01*
X79746654Y24838152D01*
X79651416Y24885771D01*
X79413320Y24885771D01*
X79318082Y24933390D01*
X78841892Y24504819D02*
X78841892Y25171485D01*
X78841892Y24981009D02*
X78794273Y25076247D01*
X78746654Y25123866D01*
X78651416Y25171485D01*
X78556178Y25171485D01*
X77841892Y24552438D02*
X77937130Y24504819D01*
X78127606Y24504819D01*
X78222844Y24552438D01*
X78270463Y24647676D01*
X78270463Y25028628D01*
X78222844Y25123866D01*
X78127606Y25171485D01*
X77937130Y25171485D01*
X77841892Y25123866D01*
X77794273Y25028628D01*
X77794273Y24933390D01*
X78270463Y24838152D01*
X76937130Y24504819D02*
X76937130Y25028628D01*
X76984749Y25123866D01*
X77079987Y25171485D01*
X77270463Y25171485D01*
X77365701Y25123866D01*
X76937130Y24552438D02*
X77032368Y24504819D01*
X77270463Y24504819D01*
X77365701Y24552438D01*
X77413320Y24647676D01*
X77413320Y24742914D01*
X77365701Y24838152D01*
X77270463Y24885771D01*
X77032368Y24885771D01*
X76937130Y24933390D01*
X75699035Y24504819D02*
X75699035Y25171485D01*
X75699035Y25076247D02*
X75651416Y25123866D01*
X75556178Y25171485D01*
X75413320Y25171485D01*
X75318082Y25123866D01*
X75270463Y25028628D01*
X75270463Y24504819D01*
X75270463Y25028628D02*
X75222844Y25123866D01*
X75127606Y25171485D01*
X74984749Y25171485D01*
X74889511Y25123866D01*
X74841892Y25028628D01*
X74841892Y24504819D01*
X73937130Y25171485D02*
X73937130Y24504819D01*
X74365701Y25171485D02*
X74365701Y24647676D01*
X74318082Y24552438D01*
X74222844Y24504819D01*
X74079987Y24504819D01*
X73984749Y24552438D01*
X73937130Y24600057D01*
X73508559Y24552438D02*
X73413320Y24504819D01*
X73222844Y24504819D01*
X73127606Y24552438D01*
X73079987Y24647676D01*
X73079987Y24695295D01*
X73127606Y24790533D01*
X73222844Y24838152D01*
X73365701Y24838152D01*
X73460940Y24885771D01*
X73508559Y24981009D01*
X73508559Y25028628D01*
X73460940Y25123866D01*
X73365701Y25171485D01*
X73222844Y25171485D01*
X73127606Y25123866D01*
X72794273Y25171485D02*
X72413320Y25171485D01*
X72651416Y25504819D02*
X72651416Y24647676D01*
X72603797Y24552438D01*
X72508559Y24504819D01*
X72413320Y24504819D01*
X71318082Y24504819D02*
X71318082Y25504819D01*
X71318082Y25123866D02*
X71222844Y25171485D01*
X71032368Y25171485D01*
X70937130Y25123866D01*
X70889511Y25076247D01*
X70841892Y24981009D01*
X70841892Y24695295D01*
X70889511Y24600057D01*
X70937130Y24552438D01*
X71032368Y24504819D01*
X71222844Y24504819D01*
X71318082Y24552438D01*
X70032368Y24552438D02*
X70127606Y24504819D01*
X70318082Y24504819D01*
X70413320Y24552438D01*
X70460940Y24647676D01*
X70460940Y25028628D01*
X70413320Y25123866D01*
X70318082Y25171485D01*
X70127606Y25171485D01*
X70032368Y25123866D01*
X69984749Y25028628D01*
X69984749Y24933390D01*
X70460940Y24838152D01*
X91222844Y23519085D02*
X91222844Y22519085D01*
X91222844Y23471466D02*
X91127606Y23519085D01*
X90937130Y23519085D01*
X90841892Y23471466D01*
X90794273Y23423847D01*
X90746654Y23328609D01*
X90746654Y23042895D01*
X90794273Y22947657D01*
X90841892Y22900038D01*
X90937130Y22852419D01*
X91127606Y22852419D01*
X91222844Y22900038D01*
X89937130Y22900038D02*
X90032368Y22852419D01*
X90222844Y22852419D01*
X90318082Y22900038D01*
X90365701Y22995276D01*
X90365701Y23376228D01*
X90318082Y23471466D01*
X90222844Y23519085D01*
X90032368Y23519085D01*
X89937130Y23471466D01*
X89889511Y23376228D01*
X89889511Y23280990D01*
X90365701Y23185752D01*
X89460940Y22852419D02*
X89460940Y23519085D01*
X89460940Y23328609D02*
X89413320Y23423847D01*
X89365701Y23471466D01*
X89270463Y23519085D01*
X89175225Y23519085D01*
X88984749Y23519085D02*
X88603797Y23519085D01*
X88841892Y22852419D02*
X88841892Y23709561D01*
X88794273Y23804800D01*
X88699035Y23852419D01*
X88603797Y23852419D01*
X87889511Y22900038D02*
X87984749Y22852419D01*
X88175225Y22852419D01*
X88270463Y22900038D01*
X88318082Y22995276D01*
X88318082Y23376228D01*
X88270463Y23471466D01*
X88175225Y23519085D01*
X87984749Y23519085D01*
X87889511Y23471466D01*
X87841892Y23376228D01*
X87841892Y23280990D01*
X88318082Y23185752D01*
X86984749Y22900038D02*
X87079987Y22852419D01*
X87270463Y22852419D01*
X87365701Y22900038D01*
X87413320Y22947657D01*
X87460940Y23042895D01*
X87460940Y23328609D01*
X87413320Y23423847D01*
X87365701Y23471466D01*
X87270463Y23519085D01*
X87079987Y23519085D01*
X86984749Y23471466D01*
X86699035Y23519085D02*
X86318082Y23519085D01*
X86556178Y23852419D02*
X86556178Y22995276D01*
X86508559Y22900038D01*
X86413320Y22852419D01*
X86318082Y22852419D01*
X85841892Y22852419D02*
X85937130Y22900038D01*
X85984749Y22995276D01*
X85984749Y23852419D01*
X85556178Y23519085D02*
X85318082Y22852419D01*
X85079987Y23519085D02*
X85318082Y22852419D01*
X85413320Y22614323D01*
X85460940Y22566704D01*
X85556178Y22519085D01*
X84079987Y23519085D02*
X83699035Y23519085D01*
X83937130Y22852419D02*
X83937130Y23709561D01*
X83889511Y23804800D01*
X83794273Y23852419D01*
X83699035Y23852419D01*
X83222844Y22852419D02*
X83318082Y22900038D01*
X83365701Y22995276D01*
X83365701Y23852419D01*
X82413320Y22852419D02*
X82413320Y23376228D01*
X82460940Y23471466D01*
X82556178Y23519085D01*
X82746654Y23519085D01*
X82841892Y23471466D01*
X82413320Y22900038D02*
X82508559Y22852419D01*
X82746654Y22852419D01*
X82841892Y22900038D01*
X82889511Y22995276D01*
X82889511Y23090514D01*
X82841892Y23185752D01*
X82746654Y23233371D01*
X82508559Y23233371D01*
X82413320Y23280990D01*
X82079987Y23519085D02*
X81699035Y23519085D01*
X81937130Y23852419D02*
X81937130Y22995276D01*
X81889511Y22900038D01*
X81794273Y22852419D01*
X81699035Y22852419D01*
X81365701Y22947657D02*
X81318082Y22900038D01*
X81365701Y22852419D01*
X81413320Y22900038D01*
X81365701Y22947657D01*
X81365701Y22852419D01*
X79556178Y22947657D02*
X79603797Y22900038D01*
X79746654Y22852419D01*
X79841892Y22852419D01*
X79984749Y22900038D01*
X80079987Y22995276D01*
X80127606Y23090514D01*
X80175225Y23280990D01*
X80175225Y23423847D01*
X80127606Y23614323D01*
X80079987Y23709561D01*
X79984749Y23804800D01*
X79841892Y23852419D01*
X79746654Y23852419D01*
X79603797Y23804800D01*
X79556178Y23757180D01*
X78699035Y23519085D02*
X78699035Y22852419D01*
X79127606Y23519085D02*
X79127606Y22995276D01*
X79079987Y22900038D01*
X78984749Y22852419D01*
X78841892Y22852419D01*
X78746654Y22900038D01*
X78699035Y22947657D01*
X78365701Y23519085D02*
X77984749Y23519085D01*
X78222844Y23852419D02*
X78222844Y22995276D01*
X78175225Y22900038D01*
X78079987Y22852419D01*
X77984749Y22852419D01*
X76460940Y22900038D02*
X76556178Y22852419D01*
X76746654Y22852419D01*
X76841892Y22900038D01*
X76889511Y22947657D01*
X76937130Y23042895D01*
X76937130Y23328609D01*
X76889511Y23423847D01*
X76841892Y23471466D01*
X76746654Y23519085D01*
X76556178Y23519085D01*
X76460940Y23471466D01*
X75889511Y22852419D02*
X75984749Y22900038D01*
X76032368Y22947657D01*
X76079987Y23042895D01*
X76079987Y23328609D01*
X76032368Y23423847D01*
X75984749Y23471466D01*
X75889511Y23519085D01*
X75746654Y23519085D01*
X75651416Y23471466D01*
X75603797Y23423847D01*
X75556178Y23328609D01*
X75556178Y23042895D01*
X75603797Y22947657D01*
X75651416Y22900038D01*
X75746654Y22852419D01*
X75889511Y22852419D01*
X75127606Y23519085D02*
X75127606Y22852419D01*
X75127606Y23423847D02*
X75079987Y23471466D01*
X74984749Y23519085D01*
X74841892Y23519085D01*
X74746654Y23471466D01*
X74699035Y23376228D01*
X74699035Y22852419D01*
X74222844Y23519085D02*
X74222844Y22852419D01*
X74222844Y23423847D02*
X74175225Y23471466D01*
X74079987Y23519085D01*
X73937130Y23519085D01*
X73841892Y23471466D01*
X73794273Y23376228D01*
X73794273Y22852419D01*
X72937130Y22900038D02*
X73032368Y22852419D01*
X73222844Y22852419D01*
X73318082Y22900038D01*
X73365701Y22995276D01*
X73365701Y23376228D01*
X73318082Y23471466D01*
X73222844Y23519085D01*
X73032368Y23519085D01*
X72937130Y23471466D01*
X72889511Y23376228D01*
X72889511Y23280990D01*
X73365701Y23185752D01*
X72032368Y22900038D02*
X72127606Y22852419D01*
X72318082Y22852419D01*
X72413320Y22900038D01*
X72460940Y22947657D01*
X72508559Y23042895D01*
X72508559Y23328609D01*
X72460940Y23423847D01*
X72413320Y23471466D01*
X72318082Y23519085D01*
X72127606Y23519085D01*
X72032368Y23471466D01*
X71746654Y23519085D02*
X71365701Y23519085D01*
X71603797Y23852419D02*
X71603797Y22995276D01*
X71556178Y22900038D01*
X71460940Y22852419D01*
X71365701Y22852419D01*
X70889511Y22852419D02*
X70984749Y22900038D01*
X71032368Y22947657D01*
X71079987Y23042895D01*
X71079987Y23328609D01*
X71032368Y23423847D01*
X70984749Y23471466D01*
X70889511Y23519085D01*
X70746654Y23519085D01*
X70651416Y23471466D01*
X70603797Y23423847D01*
X70556178Y23328609D01*
X70556178Y23042895D01*
X70603797Y22947657D01*
X70651416Y22900038D01*
X70746654Y22852419D01*
X70889511Y22852419D01*
X70127606Y22852419D02*
X70127606Y23519085D01*
X70127606Y23328609D02*
X70079987Y23423847D01*
X70032368Y23471466D01*
X69937130Y23519085D01*
X69841892Y23519085D01*
X91222844Y21866685D02*
X91222844Y20866685D01*
X91222844Y21819066D02*
X91127606Y21866685D01*
X90937130Y21866685D01*
X90841892Y21819066D01*
X90794273Y21771447D01*
X90746654Y21676209D01*
X90746654Y21390495D01*
X90794273Y21295257D01*
X90841892Y21247638D01*
X90937130Y21200019D01*
X91127606Y21200019D01*
X91222844Y21247638D01*
X90318082Y21200019D02*
X90318082Y21866685D01*
X90318082Y22200019D02*
X90365701Y22152400D01*
X90318082Y22104780D01*
X90270463Y22152400D01*
X90318082Y22200019D01*
X90318082Y22104780D01*
X89841892Y21866685D02*
X89841892Y21200019D01*
X89841892Y21771447D02*
X89794273Y21819066D01*
X89699035Y21866685D01*
X89556178Y21866685D01*
X89460940Y21819066D01*
X89413320Y21723828D01*
X89413320Y21200019D01*
X88984749Y21247638D02*
X88889511Y21200019D01*
X88699035Y21200019D01*
X88603797Y21247638D01*
X88556178Y21342876D01*
X88556178Y21390495D01*
X88603797Y21485733D01*
X88699035Y21533352D01*
X88841892Y21533352D01*
X88937130Y21580971D01*
X88984749Y21676209D01*
X88984749Y21723828D01*
X88937130Y21819066D01*
X88841892Y21866685D01*
X88699035Y21866685D01*
X88603797Y21819066D01*
X86937130Y21866685D02*
X86937130Y21200019D01*
X87365701Y21866685D02*
X87365701Y21342876D01*
X87318082Y21247638D01*
X87222844Y21200019D01*
X87079987Y21200019D01*
X86984749Y21247638D01*
X86937130Y21295257D01*
X86508559Y21247638D02*
X86413320Y21200019D01*
X86222844Y21200019D01*
X86127606Y21247638D01*
X86079987Y21342876D01*
X86079987Y21390495D01*
X86127606Y21485733D01*
X86222844Y21533352D01*
X86365701Y21533352D01*
X86460940Y21580971D01*
X86508559Y21676209D01*
X86508559Y21723828D01*
X86460940Y21819066D01*
X86365701Y21866685D01*
X86222844Y21866685D01*
X86127606Y21819066D01*
X85651416Y21200019D02*
X85651416Y21866685D01*
X85651416Y22200019D02*
X85699035Y22152400D01*
X85651416Y22104780D01*
X85603797Y22152400D01*
X85651416Y22200019D01*
X85651416Y22104780D01*
X85175225Y21866685D02*
X85175225Y21200019D01*
X85175225Y21771447D02*
X85127606Y21819066D01*
X85032368Y21866685D01*
X84889511Y21866685D01*
X84794273Y21819066D01*
X84746654Y21723828D01*
X84746654Y21200019D01*
X83841892Y21866685D02*
X83841892Y21057161D01*
X83889511Y20961923D01*
X83937130Y20914304D01*
X84032368Y20866685D01*
X84175225Y20866685D01*
X84270463Y20914304D01*
X83841892Y21247638D02*
X83937130Y21200019D01*
X84127606Y21200019D01*
X84222844Y21247638D01*
X84270463Y21295257D01*
X84318082Y21390495D01*
X84318082Y21676209D01*
X84270463Y21771447D01*
X84222844Y21819066D01*
X84127606Y21866685D01*
X83937130Y21866685D01*
X83841892Y21819066D01*
X82746654Y21866685D02*
X82365701Y21866685D01*
X82603797Y22200019D02*
X82603797Y21342876D01*
X82556178Y21247638D01*
X82460940Y21200019D01*
X82365701Y21200019D01*
X82032368Y21200019D02*
X82032368Y22200019D01*
X81603797Y21200019D02*
X81603797Y21723828D01*
X81651416Y21819066D01*
X81746654Y21866685D01*
X81889511Y21866685D01*
X81984749Y21819066D01*
X82032368Y21771447D01*
X80746654Y21247638D02*
X80841892Y21200019D01*
X81032368Y21200019D01*
X81127606Y21247638D01*
X81175225Y21342876D01*
X81175225Y21723828D01*
X81127606Y21819066D01*
X81032368Y21866685D01*
X80841892Y21866685D01*
X80746654Y21819066D01*
X80699035Y21723828D01*
X80699035Y21628590D01*
X81175225Y21533352D01*
X79603797Y22200019D02*
X78984749Y22200019D01*
X79318082Y21819066D01*
X79175225Y21819066D01*
X79079987Y21771447D01*
X79032368Y21723828D01*
X78984749Y21628590D01*
X78984749Y21390495D01*
X79032368Y21295257D01*
X79079987Y21247638D01*
X79175225Y21200019D01*
X79460940Y21200019D01*
X79556178Y21247638D01*
X79603797Y21295257D01*
X78556178Y21200019D02*
X78556178Y22200019D01*
X78318082Y22200019D01*
X78175225Y22152400D01*
X78079987Y22057161D01*
X78032368Y21961923D01*
X77984749Y21771447D01*
X77984749Y21628590D01*
X78032368Y21438114D01*
X78079987Y21342876D01*
X78175225Y21247638D01*
X78318082Y21200019D01*
X78556178Y21200019D01*
X76794273Y21200019D02*
X76794273Y21866685D01*
X76794273Y21771447D02*
X76746654Y21819066D01*
X76651416Y21866685D01*
X76508559Y21866685D01*
X76413320Y21819066D01*
X76365701Y21723828D01*
X76365701Y21200019D01*
X76365701Y21723828D02*
X76318082Y21819066D01*
X76222844Y21866685D01*
X76079987Y21866685D01*
X75984749Y21819066D01*
X75937130Y21723828D01*
X75937130Y21200019D01*
X75318082Y21200019D02*
X75413320Y21247638D01*
X75460940Y21295257D01*
X75508559Y21390495D01*
X75508559Y21676209D01*
X75460940Y21771447D01*
X75413320Y21819066D01*
X75318082Y21866685D01*
X75175225Y21866685D01*
X75079987Y21819066D01*
X75032368Y21771447D01*
X74984749Y21676209D01*
X74984749Y21390495D01*
X75032368Y21295257D01*
X75079987Y21247638D01*
X75175225Y21200019D01*
X75318082Y21200019D01*
X74127606Y21200019D02*
X74127606Y22200019D01*
X74127606Y21247638D02*
X74222844Y21200019D01*
X74413320Y21200019D01*
X74508559Y21247638D01*
X74556178Y21295257D01*
X74603797Y21390495D01*
X74603797Y21676209D01*
X74556178Y21771447D01*
X74508559Y21819066D01*
X74413320Y21866685D01*
X74222844Y21866685D01*
X74127606Y21819066D01*
X73270463Y21247638D02*
X73365701Y21200019D01*
X73556178Y21200019D01*
X73651416Y21247638D01*
X73699035Y21342876D01*
X73699035Y21723828D01*
X73651416Y21819066D01*
X73556178Y21866685D01*
X73365701Y21866685D01*
X73270463Y21819066D01*
X73222844Y21723828D01*
X73222844Y21628590D01*
X73699035Y21533352D01*
X72651416Y21200019D02*
X72746654Y21247638D01*
X72794273Y21342876D01*
X72794273Y22200019D01*
X71508559Y21866685D02*
X71508559Y21009542D01*
X71556178Y20914304D01*
X71651416Y20866685D01*
X71699035Y20866685D01*
X71508559Y22200019D02*
X71556178Y22152400D01*
X71508559Y22104780D01*
X71460940Y22152400D01*
X71508559Y22200019D01*
X71508559Y22104780D01*
X71032368Y21200019D02*
X71032368Y21866685D01*
X71032368Y22200019D02*
X71079987Y22152400D01*
X71032368Y22104780D01*
X70984749Y22152400D01*
X71032368Y22200019D01*
X71032368Y22104780D01*
X70127606Y21866685D02*
X70127606Y21057161D01*
X70175225Y20961923D01*
X70222844Y20914304D01*
X70318082Y20866685D01*
X70460940Y20866685D01*
X70556178Y20914304D01*
X70127606Y21247638D02*
X70222844Y21200019D01*
X70413320Y21200019D01*
X70508559Y21247638D01*
X70556178Y21295257D01*
X70603797Y21390495D01*
X70603797Y21676209D01*
X70556178Y21771447D01*
X70508559Y21819066D01*
X70413320Y21866685D01*
X70222844Y21866685D01*
X70127606Y21819066D01*
X90889511Y20071428D02*
X90746654Y20023809D01*
X90699035Y19976190D01*
X90651416Y19880952D01*
X90651416Y19738095D01*
X90699035Y19642857D01*
X90746654Y19595238D01*
X90841892Y19547619D01*
X91222844Y19547619D01*
X91222844Y20547619D01*
X90889511Y20547619D01*
X90794273Y20500000D01*
X90746654Y20452380D01*
X90699035Y20357142D01*
X90699035Y20261904D01*
X90746654Y20166666D01*
X90794273Y20119047D01*
X90889511Y20071428D01*
X91222844Y20071428D01*
X90222844Y20071428D02*
X89889511Y20071428D01*
X89746654Y19547619D02*
X90222844Y19547619D01*
X90222844Y20547619D01*
X89746654Y20547619D01*
X88984749Y20071428D02*
X89318082Y20071428D01*
X89318082Y19547619D02*
X89318082Y20547619D01*
X88841892Y20547619D01*
X88270463Y20547619D02*
X88079987Y20547619D01*
X87984749Y20500000D01*
X87889511Y20404761D01*
X87841892Y20214285D01*
X87841892Y19880952D01*
X87889511Y19690476D01*
X87984749Y19595238D01*
X88079987Y19547619D01*
X88270463Y19547619D01*
X88365701Y19595238D01*
X88460940Y19690476D01*
X88508559Y19880952D01*
X88508559Y20214285D01*
X88460940Y20404761D01*
X88365701Y20500000D01*
X88270463Y20547619D01*
X86841892Y19547619D02*
X87175225Y20023809D01*
X87413320Y19547619D02*
X87413320Y20547619D01*
X87032368Y20547619D01*
X86937130Y20500000D01*
X86889511Y20452380D01*
X86841892Y20357142D01*
X86841892Y20214285D01*
X86889511Y20119047D01*
X86937130Y20071428D01*
X87032368Y20023809D01*
X87413320Y20023809D01*
X86413320Y20071428D02*
X86079987Y20071428D01*
X85937130Y19547619D02*
X86413320Y19547619D01*
X86413320Y20547619D01*
X85937130Y20547619D01*
X84746654Y19547619D02*
X84746654Y20214285D01*
X84746654Y20547619D02*
X84794273Y20500000D01*
X84746654Y20452380D01*
X84699035Y20500000D01*
X84746654Y20547619D01*
X84746654Y20452380D01*
X84270463Y20214285D02*
X84270463Y19547619D01*
X84270463Y20119047D02*
X84222844Y20166666D01*
X84127606Y20214285D01*
X83984749Y20214285D01*
X83889511Y20166666D01*
X83841892Y20071428D01*
X83841892Y19547619D01*
X83413320Y19595238D02*
X83318082Y19547619D01*
X83127606Y19547619D01*
X83032368Y19595238D01*
X82984749Y19690476D01*
X82984749Y19738095D01*
X83032368Y19833333D01*
X83127606Y19880952D01*
X83270463Y19880952D01*
X83365701Y19928571D01*
X83413320Y20023809D01*
X83413320Y20071428D01*
X83365701Y20166666D01*
X83270463Y20214285D01*
X83127606Y20214285D01*
X83032368Y20166666D01*
X82175225Y19595238D02*
X82270463Y19547619D01*
X82460940Y19547619D01*
X82556178Y19595238D01*
X82603797Y19690476D01*
X82603797Y20071428D01*
X82556178Y20166666D01*
X82460940Y20214285D01*
X82270463Y20214285D01*
X82175225Y20166666D01*
X82127606Y20071428D01*
X82127606Y19976190D01*
X82603797Y19880952D01*
X81699035Y19547619D02*
X81699035Y20214285D01*
X81699035Y20023809D02*
X81651416Y20119047D01*
X81603797Y20166666D01*
X81508559Y20214285D01*
X81413320Y20214285D01*
X81222844Y20214285D02*
X80841892Y20214285D01*
X81079987Y20547619D02*
X81079987Y19690476D01*
X81032368Y19595238D01*
X80937130Y19547619D01*
X80841892Y19547619D01*
X80508559Y19547619D02*
X80508559Y20214285D01*
X80508559Y20547619D02*
X80556178Y20500000D01*
X80508559Y20452380D01*
X80460940Y20500000D01*
X80508559Y20547619D01*
X80508559Y20452380D01*
X80032368Y20214285D02*
X80032368Y19547619D01*
X80032368Y20119047D02*
X79984749Y20166666D01*
X79889511Y20214285D01*
X79746654Y20214285D01*
X79651416Y20166666D01*
X79603797Y20071428D01*
X79603797Y19547619D01*
X78699035Y20214285D02*
X78699035Y19404761D01*
X78746654Y19309523D01*
X78794273Y19261904D01*
X78889511Y19214285D01*
X79032368Y19214285D01*
X79127606Y19261904D01*
X78699035Y19595238D02*
X78794273Y19547619D01*
X78984749Y19547619D01*
X79079987Y19595238D01*
X79127606Y19642857D01*
X79175225Y19738095D01*
X79175225Y20023809D01*
X79127606Y20119047D01*
X79079987Y20166666D01*
X78984749Y20214285D01*
X78794273Y20214285D01*
X78699035Y20166666D01*
X77603797Y20214285D02*
X77222844Y20214285D01*
X77460940Y20547619D02*
X77460940Y19690476D01*
X77413320Y19595238D01*
X77318082Y19547619D01*
X77222844Y19547619D01*
X76889511Y19547619D02*
X76889511Y20547619D01*
X76460940Y19547619D02*
X76460940Y20071428D01*
X76508559Y20166666D01*
X76603797Y20214285D01*
X76746654Y20214285D01*
X76841892Y20166666D01*
X76889511Y20119047D01*
X75603797Y19595238D02*
X75699035Y19547619D01*
X75889511Y19547619D01*
X75984749Y19595238D01*
X76032368Y19690476D01*
X76032368Y20071428D01*
X75984749Y20166666D01*
X75889511Y20214285D01*
X75699035Y20214285D01*
X75603797Y20166666D01*
X75556178Y20071428D01*
X75556178Y19976190D01*
X76032368Y19880952D01*
X75127606Y19547619D02*
X75127606Y20214285D01*
X75127606Y20119047D02*
X75079987Y20166666D01*
X74984749Y20214285D01*
X74841892Y20214285D01*
X74746654Y20166666D01*
X74699035Y20071428D01*
X74699035Y19547619D01*
X74699035Y20071428D02*
X74651416Y20166666D01*
X74556178Y20214285D01*
X74413320Y20214285D01*
X74318082Y20166666D01*
X74270463Y20071428D01*
X74270463Y19547619D01*
X73794273Y19642857D02*
X73746654Y19595238D01*
X73794273Y19547619D01*
X73841892Y19595238D01*
X73794273Y19642857D01*
X73794273Y19547619D01*
X91270463Y18180933D02*
X90794273Y18180933D01*
X91365701Y17895219D02*
X91032368Y18895219D01*
X90699035Y17895219D01*
X90508559Y18561885D02*
X90127606Y18561885D01*
X90365701Y18895219D02*
X90365701Y18038076D01*
X90318082Y17942838D01*
X90222844Y17895219D01*
X90127606Y17895219D01*
X89937130Y18561885D02*
X89556178Y18561885D01*
X89794273Y18895219D02*
X89794273Y18038076D01*
X89746654Y17942838D01*
X89651416Y17895219D01*
X89556178Y17895219D01*
X88794273Y17895219D02*
X88794273Y18419028D01*
X88841892Y18514266D01*
X88937130Y18561885D01*
X89127606Y18561885D01*
X89222844Y18514266D01*
X88794273Y17942838D02*
X88889511Y17895219D01*
X89127606Y17895219D01*
X89222844Y17942838D01*
X89270463Y18038076D01*
X89270463Y18133314D01*
X89222844Y18228552D01*
X89127606Y18276171D01*
X88889511Y18276171D01*
X88794273Y18323790D01*
X87889511Y17942838D02*
X87984749Y17895219D01*
X88175225Y17895219D01*
X88270463Y17942838D01*
X88318082Y17990457D01*
X88365701Y18085695D01*
X88365701Y18371409D01*
X88318082Y18466647D01*
X88270463Y18514266D01*
X88175225Y18561885D01*
X87984749Y18561885D01*
X87889511Y18514266D01*
X87460940Y17895219D02*
X87460940Y18895219D01*
X87032368Y17895219D02*
X87032368Y18419028D01*
X87079987Y18514266D01*
X87175225Y18561885D01*
X87318082Y18561885D01*
X87413320Y18514266D01*
X87460940Y18466647D01*
X85937130Y18561885D02*
X85556178Y18561885D01*
X85794273Y18895219D02*
X85794273Y18038076D01*
X85746654Y17942838D01*
X85651416Y17895219D01*
X85556178Y17895219D01*
X85222844Y17895219D02*
X85222844Y18895219D01*
X84794273Y17895219D02*
X84794273Y18419028D01*
X84841892Y18514266D01*
X84937130Y18561885D01*
X85079987Y18561885D01*
X85175225Y18514266D01*
X85222844Y18466647D01*
X83937130Y17942838D02*
X84032368Y17895219D01*
X84222844Y17895219D01*
X84318082Y17942838D01*
X84365701Y18038076D01*
X84365701Y18419028D01*
X84318082Y18514266D01*
X84222844Y18561885D01*
X84032368Y18561885D01*
X83937130Y18514266D01*
X83889511Y18419028D01*
X83889511Y18323790D01*
X84365701Y18228552D01*
X82841892Y18895219D02*
X82270463Y18895219D01*
X82556178Y17895219D02*
X82556178Y18895219D01*
X81603797Y18419028D02*
X81937130Y18419028D01*
X81937130Y17895219D02*
X81937130Y18895219D01*
X81460940Y18895219D01*
X81222844Y18895219D02*
X80651416Y18895219D01*
X80937130Y17895219D02*
X80937130Y18895219D01*
X79651416Y18561885D02*
X79460940Y17895219D01*
X79270463Y18371409D01*
X79079987Y17895219D01*
X78889511Y18561885D01*
X78508559Y17895219D02*
X78508559Y18561885D01*
X78508559Y18895219D02*
X78556178Y18847600D01*
X78508559Y18799980D01*
X78460940Y18847600D01*
X78508559Y18895219D01*
X78508559Y18799980D01*
X78175225Y18561885D02*
X77794273Y18561885D01*
X78032368Y18895219D02*
X78032368Y18038076D01*
X77984749Y17942838D01*
X77889511Y17895219D01*
X77794273Y17895219D01*
X77460940Y17895219D02*
X77460940Y18895219D01*
X77032368Y17895219D02*
X77032368Y18419028D01*
X77079987Y18514266D01*
X77175225Y18561885D01*
X77318082Y18561885D01*
X77413320Y18514266D01*
X77460940Y18466647D01*
X75603797Y18895219D02*
X75508559Y18895219D01*
X75413320Y18847600D01*
X75365701Y18799980D01*
X75318082Y18704742D01*
X75270463Y18514266D01*
X75270463Y18276171D01*
X75318082Y18085695D01*
X75365701Y17990457D01*
X75413320Y17942838D01*
X75508559Y17895219D01*
X75603797Y17895219D01*
X75699035Y17942838D01*
X75746654Y17990457D01*
X75794273Y18085695D01*
X75841892Y18276171D01*
X75841892Y18514266D01*
X75794273Y18704742D01*
X75746654Y18799980D01*
X75699035Y18847600D01*
X75603797Y18895219D01*
X74841892Y17990457D02*
X74794273Y17942838D01*
X74841892Y17895219D01*
X74889511Y17942838D01*
X74841892Y17990457D01*
X74841892Y17895219D01*
X74413320Y18799980D02*
X74365701Y18847600D01*
X74270463Y18895219D01*
X74032368Y18895219D01*
X73937130Y18847600D01*
X73889511Y18799980D01*
X73841892Y18704742D01*
X73841892Y18609504D01*
X73889511Y18466647D01*
X74460940Y17895219D01*
X73841892Y17895219D01*
X73413320Y17895219D02*
X73413320Y18561885D01*
X73413320Y18466647D02*
X73365701Y18514266D01*
X73270463Y18561885D01*
X73127606Y18561885D01*
X73032368Y18514266D01*
X72984749Y18419028D01*
X72984749Y17895219D01*
X72984749Y18419028D02*
X72937130Y18514266D01*
X72841892Y18561885D01*
X72699035Y18561885D01*
X72603797Y18514266D01*
X72556178Y18419028D01*
X72556178Y17895219D01*
X72079987Y17895219D02*
X72079987Y18561885D01*
X72079987Y18466647D02*
X72032368Y18514266D01*
X71937130Y18561885D01*
X71794273Y18561885D01*
X71699035Y18514266D01*
X71651416Y18419028D01*
X71651416Y17895219D01*
X71651416Y18419028D02*
X71603797Y18514266D01*
X71508559Y18561885D01*
X71365701Y18561885D01*
X71270463Y18514266D01*
X71222844Y18419028D01*
X71222844Y17895219D01*
X90794273Y16242819D02*
X90794273Y17242819D01*
X90794273Y16290438D02*
X90889511Y16242819D01*
X91079987Y16242819D01*
X91175225Y16290438D01*
X91222844Y16338057D01*
X91270463Y16433295D01*
X91270463Y16719009D01*
X91222844Y16814247D01*
X91175225Y16861866D01*
X91079987Y16909485D01*
X90889511Y16909485D01*
X90794273Y16861866D01*
X90175225Y16242819D02*
X90270463Y16290438D01*
X90318082Y16338057D01*
X90365701Y16433295D01*
X90365701Y16719009D01*
X90318082Y16814247D01*
X90270463Y16861866D01*
X90175225Y16909485D01*
X90032368Y16909485D01*
X89937130Y16861866D01*
X89889511Y16814247D01*
X89841892Y16719009D01*
X89841892Y16433295D01*
X89889511Y16338057D01*
X89937130Y16290438D01*
X90032368Y16242819D01*
X90175225Y16242819D01*
X88984749Y16909485D02*
X88984749Y16242819D01*
X89413320Y16909485D02*
X89413320Y16385676D01*
X89365701Y16290438D01*
X89270463Y16242819D01*
X89127606Y16242819D01*
X89032368Y16290438D01*
X88984749Y16338057D01*
X88508559Y16242819D02*
X88508559Y17242819D01*
X88508559Y16861866D02*
X88413320Y16909485D01*
X88222844Y16909485D01*
X88127606Y16861866D01*
X88079987Y16814247D01*
X88032368Y16719009D01*
X88032368Y16433295D01*
X88079987Y16338057D01*
X88127606Y16290438D01*
X88222844Y16242819D01*
X88413320Y16242819D01*
X88508559Y16290438D01*
X87460940Y16242819D02*
X87556178Y16290438D01*
X87603797Y16385676D01*
X87603797Y17242819D01*
X86699035Y16290438D02*
X86794273Y16242819D01*
X86984749Y16242819D01*
X87079987Y16290438D01*
X87127606Y16385676D01*
X87127606Y16766628D01*
X87079987Y16861866D01*
X86984749Y16909485D01*
X86794273Y16909485D01*
X86699035Y16861866D01*
X86651416Y16766628D01*
X86651416Y16671390D01*
X87127606Y16576152D01*
X85508559Y16290438D02*
X85413320Y16242819D01*
X85222844Y16242819D01*
X85127606Y16290438D01*
X85079987Y16385676D01*
X85079987Y16433295D01*
X85127606Y16528533D01*
X85222844Y16576152D01*
X85365701Y16576152D01*
X85460940Y16623771D01*
X85508559Y16719009D01*
X85508559Y16766628D01*
X85460940Y16861866D01*
X85365701Y16909485D01*
X85222844Y16909485D01*
X85127606Y16861866D01*
X84651416Y16242819D02*
X84651416Y16909485D01*
X84651416Y17242819D02*
X84699035Y17195200D01*
X84651416Y17147580D01*
X84603797Y17195200D01*
X84651416Y17242819D01*
X84651416Y17147580D01*
X83746654Y16242819D02*
X83746654Y17242819D01*
X83746654Y16290438D02*
X83841892Y16242819D01*
X84032368Y16242819D01*
X84127606Y16290438D01*
X84175225Y16338057D01*
X84222844Y16433295D01*
X84222844Y16719009D01*
X84175225Y16814247D01*
X84127606Y16861866D01*
X84032368Y16909485D01*
X83841892Y16909485D01*
X83746654Y16861866D01*
X82889511Y16290438D02*
X82984749Y16242819D01*
X83175225Y16242819D01*
X83270463Y16290438D01*
X83318082Y16385676D01*
X83318082Y16766628D01*
X83270463Y16861866D01*
X83175225Y16909485D01*
X82984749Y16909485D01*
X82889511Y16861866D01*
X82841892Y16766628D01*
X82841892Y16671390D01*
X83318082Y16576152D01*
X81984749Y16242819D02*
X81984749Y17242819D01*
X81984749Y16290438D02*
X82079987Y16242819D01*
X82270463Y16242819D01*
X82365701Y16290438D01*
X82413320Y16338057D01*
X82460940Y16433295D01*
X82460940Y16719009D01*
X82413320Y16814247D01*
X82365701Y16861866D01*
X82270463Y16909485D01*
X82079987Y16909485D01*
X81984749Y16861866D01*
X80746654Y16242819D02*
X80746654Y16909485D01*
X80746654Y17242819D02*
X80794273Y17195200D01*
X80746654Y17147580D01*
X80699035Y17195200D01*
X80746654Y17242819D01*
X80746654Y17147580D01*
X80270463Y16909485D02*
X80270463Y16242819D01*
X80270463Y16814247D02*
X80222844Y16861866D01*
X80127606Y16909485D01*
X79984749Y16909485D01*
X79889511Y16861866D01*
X79841892Y16766628D01*
X79841892Y16242819D01*
X79413320Y16290438D02*
X79318082Y16242819D01*
X79127606Y16242819D01*
X79032368Y16290438D01*
X78984749Y16385676D01*
X78984749Y16433295D01*
X79032368Y16528533D01*
X79127606Y16576152D01*
X79270463Y16576152D01*
X79365701Y16623771D01*
X79413320Y16719009D01*
X79413320Y16766628D01*
X79365701Y16861866D01*
X79270463Y16909485D01*
X79127606Y16909485D01*
X79032368Y16861866D01*
X78127606Y16909485D02*
X78127606Y16242819D01*
X78556178Y16909485D02*
X78556178Y16385676D01*
X78508559Y16290438D01*
X78413320Y16242819D01*
X78270463Y16242819D01*
X78175225Y16290438D01*
X78127606Y16338057D01*
X77508559Y16242819D02*
X77603797Y16290438D01*
X77651416Y16385676D01*
X77651416Y17242819D01*
X76699035Y16242819D02*
X76699035Y16766628D01*
X76746654Y16861866D01*
X76841892Y16909485D01*
X77032368Y16909485D01*
X77127606Y16861866D01*
X76699035Y16290438D02*
X76794273Y16242819D01*
X77032368Y16242819D01*
X77127606Y16290438D01*
X77175225Y16385676D01*
X77175225Y16480914D01*
X77127606Y16576152D01*
X77032368Y16623771D01*
X76794273Y16623771D01*
X76699035Y16671390D01*
X76365701Y16909485D02*
X75984749Y16909485D01*
X76222844Y17242819D02*
X76222844Y16385676D01*
X76175225Y16290438D01*
X76079987Y16242819D01*
X75984749Y16242819D01*
X75270463Y16290438D02*
X75365701Y16242819D01*
X75556178Y16242819D01*
X75651416Y16290438D01*
X75699035Y16385676D01*
X75699035Y16766628D01*
X75651416Y16861866D01*
X75556178Y16909485D01*
X75365701Y16909485D01*
X75270463Y16861866D01*
X75222844Y16766628D01*
X75222844Y16671390D01*
X75699035Y16576152D01*
X74365701Y16242819D02*
X74365701Y17242819D01*
X74365701Y16290438D02*
X74460940Y16242819D01*
X74651416Y16242819D01*
X74746654Y16290438D01*
X74794273Y16338057D01*
X74841892Y16433295D01*
X74841892Y16719009D01*
X74794273Y16814247D01*
X74746654Y16861866D01*
X74651416Y16909485D01*
X74460940Y16909485D01*
X74365701Y16861866D01*
X73270463Y16909485D02*
X72889511Y16909485D01*
X73127606Y17242819D02*
X73127606Y16385676D01*
X73079987Y16290438D01*
X72984749Y16242819D01*
X72889511Y16242819D01*
X72127606Y16242819D02*
X72127606Y16766628D01*
X72175225Y16861866D01*
X72270463Y16909485D01*
X72460940Y16909485D01*
X72556178Y16861866D01*
X72127606Y16290438D02*
X72222844Y16242819D01*
X72460940Y16242819D01*
X72556178Y16290438D01*
X72603797Y16385676D01*
X72603797Y16480914D01*
X72556178Y16576152D01*
X72460940Y16623771D01*
X72222844Y16623771D01*
X72127606Y16671390D01*
X71651416Y16909485D02*
X71651416Y15909485D01*
X71651416Y16861866D02*
X71556178Y16909485D01*
X71365701Y16909485D01*
X71270463Y16861866D01*
X71222844Y16814247D01*
X71175225Y16719009D01*
X71175225Y16433295D01*
X71222844Y16338057D01*
X71270463Y16290438D01*
X71365701Y16242819D01*
X71556178Y16242819D01*
X71651416Y16290438D01*
X70365701Y16290438D02*
X70460940Y16242819D01*
X70651416Y16242819D01*
X70746654Y16290438D01*
X70794273Y16385676D01*
X70794273Y16766628D01*
X70746654Y16861866D01*
X70651416Y16909485D01*
X70460940Y16909485D01*
X70365701Y16861866D01*
X70318082Y16766628D01*
X70318082Y16671390D01*
X70794273Y16576152D01*
X91222844Y14590419D02*
X91222844Y15257085D01*
X91222844Y15590419D02*
X91270463Y15542800D01*
X91222844Y15495180D01*
X91175225Y15542800D01*
X91222844Y15590419D01*
X91222844Y15495180D01*
X90746654Y15257085D02*
X90746654Y14590419D01*
X90746654Y15161847D02*
X90699035Y15209466D01*
X90603797Y15257085D01*
X90460940Y15257085D01*
X90365701Y15209466D01*
X90318082Y15114228D01*
X90318082Y14590419D01*
X89222844Y15257085D02*
X88841892Y15257085D01*
X89079987Y15590419D02*
X89079987Y14733276D01*
X89032368Y14638038D01*
X88937130Y14590419D01*
X88841892Y14590419D01*
X88508559Y14590419D02*
X88508559Y15590419D01*
X88079987Y14590419D02*
X88079987Y15114228D01*
X88127606Y15209466D01*
X88222844Y15257085D01*
X88365701Y15257085D01*
X88460940Y15209466D01*
X88508559Y15161847D01*
X87222844Y14638038D02*
X87318082Y14590419D01*
X87508559Y14590419D01*
X87603797Y14638038D01*
X87651416Y14733276D01*
X87651416Y15114228D01*
X87603797Y15209466D01*
X87508559Y15257085D01*
X87318082Y15257085D01*
X87222844Y15209466D01*
X87175225Y15114228D01*
X87175225Y15018990D01*
X87651416Y14923752D01*
X85984749Y14590419D02*
X85984749Y15257085D01*
X85984749Y15161847D02*
X85937130Y15209466D01*
X85841892Y15257085D01*
X85699035Y15257085D01*
X85603797Y15209466D01*
X85556178Y15114228D01*
X85556178Y14590419D01*
X85556178Y15114228D02*
X85508559Y15209466D01*
X85413320Y15257085D01*
X85270463Y15257085D01*
X85175225Y15209466D01*
X85127606Y15114228D01*
X85127606Y14590419D01*
X84222844Y14590419D02*
X84222844Y15114228D01*
X84270463Y15209466D01*
X84365701Y15257085D01*
X84556178Y15257085D01*
X84651416Y15209466D01*
X84222844Y14638038D02*
X84318082Y14590419D01*
X84556178Y14590419D01*
X84651416Y14638038D01*
X84699035Y14733276D01*
X84699035Y14828514D01*
X84651416Y14923752D01*
X84556178Y14971371D01*
X84318082Y14971371D01*
X84222844Y15018990D01*
X83746654Y14590419D02*
X83746654Y15257085D01*
X83746654Y15066609D02*
X83699035Y15161847D01*
X83651416Y15209466D01*
X83556178Y15257085D01*
X83460940Y15257085D01*
X83127606Y14590419D02*
X83127606Y15590419D01*
X83032368Y14971371D02*
X82746654Y14590419D01*
X82746654Y15257085D02*
X83127606Y14876133D01*
X81937130Y14638038D02*
X82032368Y14590419D01*
X82222844Y14590419D01*
X82318082Y14638038D01*
X82365701Y14733276D01*
X82365701Y15114228D01*
X82318082Y15209466D01*
X82222844Y15257085D01*
X82032368Y15257085D01*
X81937130Y15209466D01*
X81889511Y15114228D01*
X81889511Y15018990D01*
X82365701Y14923752D01*
X81032368Y14590419D02*
X81032368Y15590419D01*
X81032368Y14638038D02*
X81127606Y14590419D01*
X81318082Y14590419D01*
X81413320Y14638038D01*
X81460940Y14685657D01*
X81508559Y14780895D01*
X81508559Y15066609D01*
X81460940Y15161847D01*
X81413320Y15209466D01*
X81318082Y15257085D01*
X81127606Y15257085D01*
X81032368Y15209466D01*
X79365701Y14590419D02*
X79365701Y15114228D01*
X79413320Y15209466D01*
X79508559Y15257085D01*
X79699035Y15257085D01*
X79794273Y15209466D01*
X79365701Y14638038D02*
X79460940Y14590419D01*
X79699035Y14590419D01*
X79794273Y14638038D01*
X79841892Y14733276D01*
X79841892Y14828514D01*
X79794273Y14923752D01*
X79699035Y14971371D01*
X79460940Y14971371D01*
X79365701Y15018990D01*
X78889511Y14590419D02*
X78889511Y15257085D01*
X78889511Y15066609D02*
X78841892Y15161847D01*
X78794273Y15209466D01*
X78699035Y15257085D01*
X78603797Y15257085D01*
X77889511Y14638038D02*
X77984749Y14590419D01*
X78175225Y14590419D01*
X78270463Y14638038D01*
X78318082Y14733276D01*
X78318082Y15114228D01*
X78270463Y15209466D01*
X78175225Y15257085D01*
X77984749Y15257085D01*
X77889511Y15209466D01*
X77841892Y15114228D01*
X77841892Y15018990D01*
X78318082Y14923752D01*
X76984749Y14590419D02*
X76984749Y15114228D01*
X77032368Y15209466D01*
X77127606Y15257085D01*
X77318082Y15257085D01*
X77413320Y15209466D01*
X76984749Y14638038D02*
X77079987Y14590419D01*
X77318082Y14590419D01*
X77413320Y14638038D01*
X77460940Y14733276D01*
X77460940Y14828514D01*
X77413320Y14923752D01*
X77318082Y14971371D01*
X77079987Y14971371D01*
X76984749Y15018990D01*
X76556178Y14638038D02*
X76460940Y14590419D01*
X76270463Y14590419D01*
X76175225Y14638038D01*
X76127606Y14733276D01*
X76127606Y14780895D01*
X76175225Y14876133D01*
X76270463Y14923752D01*
X76413320Y14923752D01*
X76508559Y14971371D01*
X76556178Y15066609D01*
X76556178Y15114228D01*
X76508559Y15209466D01*
X76413320Y15257085D01*
X76270463Y15257085D01*
X76175225Y15209466D01*
X75699035Y14685657D02*
X75651416Y14638038D01*
X75699035Y14590419D01*
X75746654Y14638038D01*
X75699035Y14685657D01*
X75699035Y14590419D01*
D13*
X2920785Y9730000D02*
X3035071Y9787142D01*
X3206500Y9787142D01*
X3377928Y9730000D01*
X3492214Y9615714D01*
X3549357Y9501428D01*
X3606500Y9272857D01*
X3606500Y9101428D01*
X3549357Y8872857D01*
X3492214Y8758571D01*
X3377928Y8644285D01*
X3206500Y8587142D01*
X3092214Y8587142D01*
X2920785Y8644285D01*
X2863642Y8701428D01*
X2863642Y9101428D01*
X3092214Y9101428D01*
X2349357Y8587142D02*
X2349357Y9787142D01*
X1663642Y8587142D01*
X1663642Y9787142D01*
X1092214Y8587142D02*
X1092214Y9787142D01*
X806500Y9787142D01*
X635071Y9730000D01*
X520785Y9615714D01*
X463642Y9501428D01*
X406500Y9272857D01*
X406500Y9101428D01*
X463642Y8872857D01*
X520785Y8758571D01*
X635071Y8644285D01*
X806500Y8587142D01*
X1092214Y8587142D01*
D10*
X5500000Y0D02*
X5500000Y57000000D01*
X94500000Y57000000D02*
X94500000Y43000000D01*
M02*
