G04 #@! TF.GenerationSoftware,KiCad,Pcbnew,(5.1.10-1-10_14)*
G04 #@! TF.CreationDate,2021-10-20T12:02:30-05:00*
G04 #@! TF.ProjectId,stepper_analyzer,73746570-7065-4725-9f61-6e616c797a65,rev?*
G04 #@! TF.SameCoordinates,Original*
G04 #@! TF.FileFunction,Copper,L1,Top*
G04 #@! TF.FilePolarity,Positive*
%FSLAX46Y46*%
G04 Gerber Fmt 4.6, Leading zero omitted, Abs format (unit mm)*
G04 Created by KiCad (PCBNEW (5.1.10-1-10_14)) date 2021-10-20 12:02:30*
%MOMM*%
%LPD*%
G01*
G04 APERTURE LIST*
G04 #@! TA.AperFunction,SMDPad,CuDef*
%ADD10R,1.500000X1.000000*%
G04 #@! TD*
G04 #@! TA.AperFunction,SMDPad,CuDef*
%ADD11C,0.100000*%
G04 #@! TD*
G04 #@! TA.AperFunction,SMDPad,CuDef*
%ADD12R,3.500000X1.700000*%
G04 #@! TD*
G04 #@! TA.AperFunction,ComponentPad*
%ADD13R,1.700000X1.700000*%
G04 #@! TD*
G04 #@! TA.AperFunction,SMDPad,CuDef*
%ADD14R,0.800000X0.900000*%
G04 #@! TD*
G04 #@! TA.AperFunction,SMDPad,CuDef*
%ADD15R,3.000000X2.000000*%
G04 #@! TD*
G04 #@! TA.AperFunction,SMDPad,CuDef*
%ADD16R,1.300000X0.300000*%
G04 #@! TD*
G04 #@! TA.AperFunction,ComponentPad*
%ADD17C,0.800000*%
G04 #@! TD*
G04 #@! TA.AperFunction,ComponentPad*
%ADD18C,5.000000*%
G04 #@! TD*
G04 #@! TA.AperFunction,ComponentPad*
%ADD19O,1.700000X1.700000*%
G04 #@! TD*
G04 #@! TA.AperFunction,SMDPad,CuDef*
%ADD20R,2.200000X1.800000*%
G04 #@! TD*
G04 #@! TA.AperFunction,ViaPad*
%ADD21C,0.787400*%
G04 #@! TD*
G04 #@! TA.AperFunction,ViaPad*
%ADD22C,1.270000*%
G04 #@! TD*
G04 #@! TA.AperFunction,ViaPad*
%ADD23C,0.800000*%
G04 #@! TD*
G04 #@! TA.AperFunction,Conductor*
%ADD24C,0.203200*%
G04 #@! TD*
G04 #@! TA.AperFunction,Conductor*
%ADD25C,1.524000*%
G04 #@! TD*
G04 #@! TA.AperFunction,Conductor*
%ADD26C,0.762000*%
G04 #@! TD*
G04 #@! TA.AperFunction,Conductor*
%ADD27C,0.508000*%
G04 #@! TD*
G04 #@! TA.AperFunction,Conductor*
%ADD28C,0.304800*%
G04 #@! TD*
G04 APERTURE END LIST*
D10*
X65810000Y12250000D03*
G04 #@! TA.AperFunction,SMDPad,CuDef*
D11*
G36*
X65060602Y13550000D02*
G01*
X65060602Y13574534D01*
X65065412Y13623365D01*
X65074984Y13671490D01*
X65089228Y13718445D01*
X65108005Y13763778D01*
X65131136Y13807051D01*
X65158396Y13847850D01*
X65189524Y13885779D01*
X65224221Y13920476D01*
X65262150Y13951604D01*
X65302949Y13978864D01*
X65346222Y14001995D01*
X65391555Y14020772D01*
X65438510Y14035016D01*
X65486635Y14044588D01*
X65535466Y14049398D01*
X65560000Y14049398D01*
X65560000Y14050000D01*
X66060000Y14050000D01*
X66060000Y14049398D01*
X66084534Y14049398D01*
X66133365Y14044588D01*
X66181490Y14035016D01*
X66228445Y14020772D01*
X66273778Y14001995D01*
X66317051Y13978864D01*
X66357850Y13951604D01*
X66395779Y13920476D01*
X66430476Y13885779D01*
X66461604Y13847850D01*
X66488864Y13807051D01*
X66511995Y13763778D01*
X66530772Y13718445D01*
X66545016Y13671490D01*
X66554588Y13623365D01*
X66559398Y13574534D01*
X66559398Y13550000D01*
X66560000Y13550000D01*
X66560000Y13000000D01*
X65060000Y13000000D01*
X65060000Y13550000D01*
X65060602Y13550000D01*
G37*
G04 #@! TD.AperFunction*
G04 #@! TA.AperFunction,SMDPad,CuDef*
G36*
X66560000Y11500000D02*
G01*
X66560000Y10950000D01*
X66559398Y10950000D01*
X66559398Y10925466D01*
X66554588Y10876635D01*
X66545016Y10828510D01*
X66530772Y10781555D01*
X66511995Y10736222D01*
X66488864Y10692949D01*
X66461604Y10652150D01*
X66430476Y10614221D01*
X66395779Y10579524D01*
X66357850Y10548396D01*
X66317051Y10521136D01*
X66273778Y10498005D01*
X66228445Y10479228D01*
X66181490Y10464984D01*
X66133365Y10455412D01*
X66084534Y10450602D01*
X66060000Y10450602D01*
X66060000Y10450000D01*
X65560000Y10450000D01*
X65560000Y10450602D01*
X65535466Y10450602D01*
X65486635Y10455412D01*
X65438510Y10464984D01*
X65391555Y10479228D01*
X65346222Y10498005D01*
X65302949Y10521136D01*
X65262150Y10548396D01*
X65224221Y10579524D01*
X65189524Y10614221D01*
X65158396Y10652150D01*
X65131136Y10692949D01*
X65108005Y10736222D01*
X65089228Y10781555D01*
X65074984Y10828510D01*
X65065412Y10876635D01*
X65060602Y10925466D01*
X65060602Y10950000D01*
X65060000Y10950000D01*
X65060000Y11500000D01*
X66560000Y11500000D01*
G37*
G04 #@! TD.AperFunction*
D10*
X63060000Y12250000D03*
G04 #@! TA.AperFunction,SMDPad,CuDef*
D11*
G36*
X62310602Y13550000D02*
G01*
X62310602Y13574534D01*
X62315412Y13623365D01*
X62324984Y13671490D01*
X62339228Y13718445D01*
X62358005Y13763778D01*
X62381136Y13807051D01*
X62408396Y13847850D01*
X62439524Y13885779D01*
X62474221Y13920476D01*
X62512150Y13951604D01*
X62552949Y13978864D01*
X62596222Y14001995D01*
X62641555Y14020772D01*
X62688510Y14035016D01*
X62736635Y14044588D01*
X62785466Y14049398D01*
X62810000Y14049398D01*
X62810000Y14050000D01*
X63310000Y14050000D01*
X63310000Y14049398D01*
X63334534Y14049398D01*
X63383365Y14044588D01*
X63431490Y14035016D01*
X63478445Y14020772D01*
X63523778Y14001995D01*
X63567051Y13978864D01*
X63607850Y13951604D01*
X63645779Y13920476D01*
X63680476Y13885779D01*
X63711604Y13847850D01*
X63738864Y13807051D01*
X63761995Y13763778D01*
X63780772Y13718445D01*
X63795016Y13671490D01*
X63804588Y13623365D01*
X63809398Y13574534D01*
X63809398Y13550000D01*
X63810000Y13550000D01*
X63810000Y13000000D01*
X62310000Y13000000D01*
X62310000Y13550000D01*
X62310602Y13550000D01*
G37*
G04 #@! TD.AperFunction*
G04 #@! TA.AperFunction,SMDPad,CuDef*
G36*
X63810000Y11500000D02*
G01*
X63810000Y10950000D01*
X63809398Y10950000D01*
X63809398Y10925466D01*
X63804588Y10876635D01*
X63795016Y10828510D01*
X63780772Y10781555D01*
X63761995Y10736222D01*
X63738864Y10692949D01*
X63711604Y10652150D01*
X63680476Y10614221D01*
X63645779Y10579524D01*
X63607850Y10548396D01*
X63567051Y10521136D01*
X63523778Y10498005D01*
X63478445Y10479228D01*
X63431490Y10464984D01*
X63383365Y10455412D01*
X63334534Y10450602D01*
X63310000Y10450602D01*
X63310000Y10450000D01*
X62810000Y10450000D01*
X62810000Y10450602D01*
X62785466Y10450602D01*
X62736635Y10455412D01*
X62688510Y10464984D01*
X62641555Y10479228D01*
X62596222Y10498005D01*
X62552949Y10521136D01*
X62512150Y10548396D01*
X62474221Y10579524D01*
X62439524Y10614221D01*
X62408396Y10652150D01*
X62381136Y10692949D01*
X62358005Y10736222D01*
X62339228Y10781555D01*
X62324984Y10828510D01*
X62315412Y10876635D01*
X62310602Y10925466D01*
X62310602Y10950000D01*
X62310000Y10950000D01*
X62310000Y11500000D01*
X63810000Y11500000D01*
G37*
G04 #@! TD.AperFunction*
D10*
X60310000Y12250000D03*
G04 #@! TA.AperFunction,SMDPad,CuDef*
D11*
G36*
X59560602Y13550000D02*
G01*
X59560602Y13574534D01*
X59565412Y13623365D01*
X59574984Y13671490D01*
X59589228Y13718445D01*
X59608005Y13763778D01*
X59631136Y13807051D01*
X59658396Y13847850D01*
X59689524Y13885779D01*
X59724221Y13920476D01*
X59762150Y13951604D01*
X59802949Y13978864D01*
X59846222Y14001995D01*
X59891555Y14020772D01*
X59938510Y14035016D01*
X59986635Y14044588D01*
X60035466Y14049398D01*
X60060000Y14049398D01*
X60060000Y14050000D01*
X60560000Y14050000D01*
X60560000Y14049398D01*
X60584534Y14049398D01*
X60633365Y14044588D01*
X60681490Y14035016D01*
X60728445Y14020772D01*
X60773778Y14001995D01*
X60817051Y13978864D01*
X60857850Y13951604D01*
X60895779Y13920476D01*
X60930476Y13885779D01*
X60961604Y13847850D01*
X60988864Y13807051D01*
X61011995Y13763778D01*
X61030772Y13718445D01*
X61045016Y13671490D01*
X61054588Y13623365D01*
X61059398Y13574534D01*
X61059398Y13550000D01*
X61060000Y13550000D01*
X61060000Y13000000D01*
X59560000Y13000000D01*
X59560000Y13550000D01*
X59560602Y13550000D01*
G37*
G04 #@! TD.AperFunction*
G04 #@! TA.AperFunction,SMDPad,CuDef*
G36*
X61060000Y11500000D02*
G01*
X61060000Y10950000D01*
X61059398Y10950000D01*
X61059398Y10925466D01*
X61054588Y10876635D01*
X61045016Y10828510D01*
X61030772Y10781555D01*
X61011995Y10736222D01*
X60988864Y10692949D01*
X60961604Y10652150D01*
X60930476Y10614221D01*
X60895779Y10579524D01*
X60857850Y10548396D01*
X60817051Y10521136D01*
X60773778Y10498005D01*
X60728445Y10479228D01*
X60681490Y10464984D01*
X60633365Y10455412D01*
X60584534Y10450602D01*
X60560000Y10450602D01*
X60560000Y10450000D01*
X60060000Y10450000D01*
X60060000Y10450602D01*
X60035466Y10450602D01*
X59986635Y10455412D01*
X59938510Y10464984D01*
X59891555Y10479228D01*
X59846222Y10498005D01*
X59802949Y10521136D01*
X59762150Y10548396D01*
X59724221Y10579524D01*
X59689524Y10614221D01*
X59658396Y10652150D01*
X59631136Y10692949D01*
X59608005Y10736222D01*
X59589228Y10781555D01*
X59574984Y10828510D01*
X59565412Y10876635D01*
X59560602Y10925466D01*
X59560602Y10950000D01*
X59560000Y10950000D01*
X59560000Y11500000D01*
X61060000Y11500000D01*
G37*
G04 #@! TD.AperFunction*
G04 #@! TA.AperFunction,SMDPad,CuDef*
G36*
G01*
X47760001Y4975000D02*
X46859999Y4975000D01*
G75*
G02*
X46610000Y5224999I0J249999D01*
G01*
X46610000Y5875001D01*
G75*
G02*
X46859999Y6125000I249999J0D01*
G01*
X47760001Y6125000D01*
G75*
G02*
X48010000Y5875001I0J-249999D01*
G01*
X48010000Y5224999D01*
G75*
G02*
X47760001Y4975000I-249999J0D01*
G01*
G37*
G04 #@! TD.AperFunction*
G04 #@! TA.AperFunction,SMDPad,CuDef*
G36*
G01*
X47760001Y2925000D02*
X46859999Y2925000D01*
G75*
G02*
X46610000Y3174999I0J249999D01*
G01*
X46610000Y3825001D01*
G75*
G02*
X46859999Y4075000I249999J0D01*
G01*
X47760001Y4075000D01*
G75*
G02*
X48010000Y3825001I0J-249999D01*
G01*
X48010000Y3174999D01*
G75*
G02*
X47760001Y2925000I-249999J0D01*
G01*
G37*
G04 #@! TD.AperFunction*
D12*
X32790000Y6870000D03*
X32790000Y9410000D03*
X32790000Y11950000D03*
X32790000Y14490000D03*
X32790000Y17030000D03*
X32790000Y19570000D03*
X32790000Y22110000D03*
X32790000Y24650000D03*
X32790000Y27190000D03*
X32790000Y29730000D03*
X32790000Y32270000D03*
X32790000Y34810000D03*
X32790000Y37350000D03*
X32790000Y39890000D03*
X32790000Y42430000D03*
X32790000Y44970000D03*
X32790000Y47510000D03*
X32790000Y50050000D03*
X32790000Y52590000D03*
X32790000Y55130000D03*
X13210000Y6870000D03*
X13210000Y9410000D03*
X13210000Y11950000D03*
X13210000Y14490000D03*
X13210000Y17030000D03*
X13210000Y19570000D03*
X13210000Y22110000D03*
X13210000Y24650000D03*
X13210000Y27190000D03*
X13210000Y29730000D03*
X13210000Y32270000D03*
X13210000Y34810000D03*
X13210000Y37350000D03*
X13210000Y39890000D03*
X13210000Y42430000D03*
X13210000Y44970000D03*
X13210000Y47510000D03*
X13210000Y50050000D03*
X13210000Y52590000D03*
X13210000Y55130000D03*
D13*
X31890000Y50050000D03*
X31890000Y37350000D03*
X31890000Y24650000D03*
X31890000Y11950000D03*
X14110000Y11950000D03*
X14110000Y24650000D03*
X14110000Y37350000D03*
X14110000Y50050000D03*
G04 #@! TA.AperFunction,SMDPad,CuDef*
G36*
G01*
X48367001Y50982000D02*
X47466999Y50982000D01*
G75*
G02*
X47217000Y51231999I0J249999D01*
G01*
X47217000Y51882001D01*
G75*
G02*
X47466999Y52132000I249999J0D01*
G01*
X48367001Y52132000D01*
G75*
G02*
X48617000Y51882001I0J-249999D01*
G01*
X48617000Y51231999D01*
G75*
G02*
X48367001Y50982000I-249999J0D01*
G01*
G37*
G04 #@! TD.AperFunction*
G04 #@! TA.AperFunction,SMDPad,CuDef*
G36*
G01*
X48367001Y48932000D02*
X47466999Y48932000D01*
G75*
G02*
X47217000Y49181999I0J249999D01*
G01*
X47217000Y49832001D01*
G75*
G02*
X47466999Y50082000I249999J0D01*
G01*
X48367001Y50082000D01*
G75*
G02*
X48617000Y49832001I0J-249999D01*
G01*
X48617000Y49181999D01*
G75*
G02*
X48367001Y48932000I-249999J0D01*
G01*
G37*
G04 #@! TD.AperFunction*
G04 #@! TA.AperFunction,SMDPad,CuDef*
G36*
G01*
X84689001Y46782000D02*
X83788999Y46782000D01*
G75*
G02*
X83539000Y47031999I0J249999D01*
G01*
X83539000Y47682001D01*
G75*
G02*
X83788999Y47932000I249999J0D01*
G01*
X84689001Y47932000D01*
G75*
G02*
X84939000Y47682001I0J-249999D01*
G01*
X84939000Y47031999D01*
G75*
G02*
X84689001Y46782000I-249999J0D01*
G01*
G37*
G04 #@! TD.AperFunction*
G04 #@! TA.AperFunction,SMDPad,CuDef*
G36*
G01*
X84689001Y44732000D02*
X83788999Y44732000D01*
G75*
G02*
X83539000Y44981999I0J249999D01*
G01*
X83539000Y45632001D01*
G75*
G02*
X83788999Y45882000I249999J0D01*
G01*
X84689001Y45882000D01*
G75*
G02*
X84939000Y45632001I0J-249999D01*
G01*
X84939000Y44981999D01*
G75*
G02*
X84689001Y44732000I-249999J0D01*
G01*
G37*
G04 #@! TD.AperFunction*
G04 #@! TA.AperFunction,SMDPad,CuDef*
G36*
G01*
X50010001Y4975000D02*
X49109999Y4975000D01*
G75*
G02*
X48860000Y5224999I0J249999D01*
G01*
X48860000Y5875001D01*
G75*
G02*
X49109999Y6125000I249999J0D01*
G01*
X50010001Y6125000D01*
G75*
G02*
X50260000Y5875001I0J-249999D01*
G01*
X50260000Y5224999D01*
G75*
G02*
X50010001Y4975000I-249999J0D01*
G01*
G37*
G04 #@! TD.AperFunction*
G04 #@! TA.AperFunction,SMDPad,CuDef*
G36*
G01*
X50010001Y2925000D02*
X49109999Y2925000D01*
G75*
G02*
X48860000Y3174999I0J249999D01*
G01*
X48860000Y3825001D01*
G75*
G02*
X49109999Y4075000I249999J0D01*
G01*
X50010001Y4075000D01*
G75*
G02*
X50260000Y3825001I0J-249999D01*
G01*
X50260000Y3174999D01*
G75*
G02*
X50010001Y2925000I-249999J0D01*
G01*
G37*
G04 #@! TD.AperFunction*
D14*
X42964000Y9622000D03*
X43914000Y7622000D03*
X42014000Y7622000D03*
G04 #@! TA.AperFunction,SMDPad,CuDef*
G36*
G01*
X44510001Y47450000D02*
X43609999Y47450000D01*
G75*
G02*
X43360000Y47699999I0J249999D01*
G01*
X43360000Y48350001D01*
G75*
G02*
X43609999Y48600000I249999J0D01*
G01*
X44510001Y48600000D01*
G75*
G02*
X44760000Y48350001I0J-249999D01*
G01*
X44760000Y47699999D01*
G75*
G02*
X44510001Y47450000I-249999J0D01*
G01*
G37*
G04 #@! TD.AperFunction*
G04 #@! TA.AperFunction,SMDPad,CuDef*
G36*
G01*
X44510001Y45400000D02*
X43609999Y45400000D01*
G75*
G02*
X43360000Y45649999I0J249999D01*
G01*
X43360000Y46300001D01*
G75*
G02*
X43609999Y46550000I249999J0D01*
G01*
X44510001Y46550000D01*
G75*
G02*
X44760000Y46300001I0J-249999D01*
G01*
X44760000Y45649999D01*
G75*
G02*
X44510001Y45400000I-249999J0D01*
G01*
G37*
G04 #@! TD.AperFunction*
D15*
X51800000Y40300000D03*
X51800000Y17500000D03*
D16*
X49450000Y19150000D03*
X49450000Y19650000D03*
X49450000Y20150000D03*
X49450000Y20650000D03*
X49450000Y21150000D03*
X49450000Y21650000D03*
X49450000Y22150000D03*
X49450000Y22650000D03*
X49450000Y23150000D03*
X49450000Y23650000D03*
X49450000Y24150000D03*
X49450000Y24650000D03*
X49450000Y25150000D03*
X49450000Y25650000D03*
X49450000Y26150000D03*
X49450000Y26650000D03*
X49450000Y27150000D03*
X49450000Y27650000D03*
X49450000Y28150000D03*
X49450000Y28650000D03*
X49450000Y29150000D03*
X49450000Y29650000D03*
X49450000Y30150000D03*
X49450000Y30650000D03*
X49450000Y31150000D03*
X49450000Y31650000D03*
X49450000Y32150000D03*
X49450000Y32650000D03*
X49450000Y33150000D03*
X49450000Y33650000D03*
X49450000Y34150000D03*
X49450000Y34650000D03*
X49450000Y35150000D03*
X49450000Y35650000D03*
X49450000Y36150000D03*
X49450000Y36650000D03*
X49450000Y37150000D03*
X49450000Y37650000D03*
X49450000Y38150000D03*
X49450000Y38650000D03*
G04 #@! TA.AperFunction,SMDPad,CuDef*
G36*
G01*
X88915000Y50935000D02*
X89215000Y50935000D01*
G75*
G02*
X89365000Y50785000I0J-150000D01*
G01*
X89365000Y49135000D01*
G75*
G02*
X89215000Y48985000I-150000J0D01*
G01*
X88915000Y48985000D01*
G75*
G02*
X88765000Y49135000I0J150000D01*
G01*
X88765000Y50785000D01*
G75*
G02*
X88915000Y50935000I150000J0D01*
G01*
G37*
G04 #@! TD.AperFunction*
G04 #@! TA.AperFunction,SMDPad,CuDef*
G36*
G01*
X87645000Y50935000D02*
X87945000Y50935000D01*
G75*
G02*
X88095000Y50785000I0J-150000D01*
G01*
X88095000Y49135000D01*
G75*
G02*
X87945000Y48985000I-150000J0D01*
G01*
X87645000Y48985000D01*
G75*
G02*
X87495000Y49135000I0J150000D01*
G01*
X87495000Y50785000D01*
G75*
G02*
X87645000Y50935000I150000J0D01*
G01*
G37*
G04 #@! TD.AperFunction*
G04 #@! TA.AperFunction,SMDPad,CuDef*
G36*
G01*
X86375000Y50935000D02*
X86675000Y50935000D01*
G75*
G02*
X86825000Y50785000I0J-150000D01*
G01*
X86825000Y49135000D01*
G75*
G02*
X86675000Y48985000I-150000J0D01*
G01*
X86375000Y48985000D01*
G75*
G02*
X86225000Y49135000I0J150000D01*
G01*
X86225000Y50785000D01*
G75*
G02*
X86375000Y50935000I150000J0D01*
G01*
G37*
G04 #@! TD.AperFunction*
G04 #@! TA.AperFunction,SMDPad,CuDef*
G36*
G01*
X85105000Y50935000D02*
X85405000Y50935000D01*
G75*
G02*
X85555000Y50785000I0J-150000D01*
G01*
X85555000Y49135000D01*
G75*
G02*
X85405000Y48985000I-150000J0D01*
G01*
X85105000Y48985000D01*
G75*
G02*
X84955000Y49135000I0J150000D01*
G01*
X84955000Y50785000D01*
G75*
G02*
X85105000Y50935000I150000J0D01*
G01*
G37*
G04 #@! TD.AperFunction*
G04 #@! TA.AperFunction,SMDPad,CuDef*
G36*
G01*
X85105000Y55885000D02*
X85405000Y55885000D01*
G75*
G02*
X85555000Y55735000I0J-150000D01*
G01*
X85555000Y54085000D01*
G75*
G02*
X85405000Y53935000I-150000J0D01*
G01*
X85105000Y53935000D01*
G75*
G02*
X84955000Y54085000I0J150000D01*
G01*
X84955000Y55735000D01*
G75*
G02*
X85105000Y55885000I150000J0D01*
G01*
G37*
G04 #@! TD.AperFunction*
G04 #@! TA.AperFunction,SMDPad,CuDef*
G36*
G01*
X86375000Y55885000D02*
X86675000Y55885000D01*
G75*
G02*
X86825000Y55735000I0J-150000D01*
G01*
X86825000Y54085000D01*
G75*
G02*
X86675000Y53935000I-150000J0D01*
G01*
X86375000Y53935000D01*
G75*
G02*
X86225000Y54085000I0J150000D01*
G01*
X86225000Y55735000D01*
G75*
G02*
X86375000Y55885000I150000J0D01*
G01*
G37*
G04 #@! TD.AperFunction*
G04 #@! TA.AperFunction,SMDPad,CuDef*
G36*
G01*
X87645000Y55885000D02*
X87945000Y55885000D01*
G75*
G02*
X88095000Y55735000I0J-150000D01*
G01*
X88095000Y54085000D01*
G75*
G02*
X87945000Y53935000I-150000J0D01*
G01*
X87645000Y53935000D01*
G75*
G02*
X87495000Y54085000I0J150000D01*
G01*
X87495000Y55735000D01*
G75*
G02*
X87645000Y55885000I150000J0D01*
G01*
G37*
G04 #@! TD.AperFunction*
G04 #@! TA.AperFunction,SMDPad,CuDef*
G36*
G01*
X88915000Y55885000D02*
X89215000Y55885000D01*
G75*
G02*
X89365000Y55735000I0J-150000D01*
G01*
X89365000Y54085000D01*
G75*
G02*
X89215000Y53935000I-150000J0D01*
G01*
X88915000Y53935000D01*
G75*
G02*
X88765000Y54085000I0J150000D01*
G01*
X88765000Y55735000D01*
G75*
G02*
X88915000Y55885000I150000J0D01*
G01*
G37*
G04 #@! TD.AperFunction*
G04 #@! TA.AperFunction,SMDPad,CuDef*
G36*
G01*
X54625000Y50935000D02*
X54925000Y50935000D01*
G75*
G02*
X55075000Y50785000I0J-150000D01*
G01*
X55075000Y49135000D01*
G75*
G02*
X54925000Y48985000I-150000J0D01*
G01*
X54625000Y48985000D01*
G75*
G02*
X54475000Y49135000I0J150000D01*
G01*
X54475000Y50785000D01*
G75*
G02*
X54625000Y50935000I150000J0D01*
G01*
G37*
G04 #@! TD.AperFunction*
G04 #@! TA.AperFunction,SMDPad,CuDef*
G36*
G01*
X53355000Y50935000D02*
X53655000Y50935000D01*
G75*
G02*
X53805000Y50785000I0J-150000D01*
G01*
X53805000Y49135000D01*
G75*
G02*
X53655000Y48985000I-150000J0D01*
G01*
X53355000Y48985000D01*
G75*
G02*
X53205000Y49135000I0J150000D01*
G01*
X53205000Y50785000D01*
G75*
G02*
X53355000Y50935000I150000J0D01*
G01*
G37*
G04 #@! TD.AperFunction*
G04 #@! TA.AperFunction,SMDPad,CuDef*
G36*
G01*
X52085000Y50935000D02*
X52385000Y50935000D01*
G75*
G02*
X52535000Y50785000I0J-150000D01*
G01*
X52535000Y49135000D01*
G75*
G02*
X52385000Y48985000I-150000J0D01*
G01*
X52085000Y48985000D01*
G75*
G02*
X51935000Y49135000I0J150000D01*
G01*
X51935000Y50785000D01*
G75*
G02*
X52085000Y50935000I150000J0D01*
G01*
G37*
G04 #@! TD.AperFunction*
G04 #@! TA.AperFunction,SMDPad,CuDef*
G36*
G01*
X50815000Y50935000D02*
X51115000Y50935000D01*
G75*
G02*
X51265000Y50785000I0J-150000D01*
G01*
X51265000Y49135000D01*
G75*
G02*
X51115000Y48985000I-150000J0D01*
G01*
X50815000Y48985000D01*
G75*
G02*
X50665000Y49135000I0J150000D01*
G01*
X50665000Y50785000D01*
G75*
G02*
X50815000Y50935000I150000J0D01*
G01*
G37*
G04 #@! TD.AperFunction*
G04 #@! TA.AperFunction,SMDPad,CuDef*
G36*
G01*
X50815000Y55885000D02*
X51115000Y55885000D01*
G75*
G02*
X51265000Y55735000I0J-150000D01*
G01*
X51265000Y54085000D01*
G75*
G02*
X51115000Y53935000I-150000J0D01*
G01*
X50815000Y53935000D01*
G75*
G02*
X50665000Y54085000I0J150000D01*
G01*
X50665000Y55735000D01*
G75*
G02*
X50815000Y55885000I150000J0D01*
G01*
G37*
G04 #@! TD.AperFunction*
G04 #@! TA.AperFunction,SMDPad,CuDef*
G36*
G01*
X52085000Y55885000D02*
X52385000Y55885000D01*
G75*
G02*
X52535000Y55735000I0J-150000D01*
G01*
X52535000Y54085000D01*
G75*
G02*
X52385000Y53935000I-150000J0D01*
G01*
X52085000Y53935000D01*
G75*
G02*
X51935000Y54085000I0J150000D01*
G01*
X51935000Y55735000D01*
G75*
G02*
X52085000Y55885000I150000J0D01*
G01*
G37*
G04 #@! TD.AperFunction*
G04 #@! TA.AperFunction,SMDPad,CuDef*
G36*
G01*
X53355000Y55885000D02*
X53655000Y55885000D01*
G75*
G02*
X53805000Y55735000I0J-150000D01*
G01*
X53805000Y54085000D01*
G75*
G02*
X53655000Y53935000I-150000J0D01*
G01*
X53355000Y53935000D01*
G75*
G02*
X53205000Y54085000I0J150000D01*
G01*
X53205000Y55735000D01*
G75*
G02*
X53355000Y55885000I150000J0D01*
G01*
G37*
G04 #@! TD.AperFunction*
G04 #@! TA.AperFunction,SMDPad,CuDef*
G36*
G01*
X54625000Y55885000D02*
X54925000Y55885000D01*
G75*
G02*
X55075000Y55735000I0J-150000D01*
G01*
X55075000Y54085000D01*
G75*
G02*
X54925000Y53935000I-150000J0D01*
G01*
X54625000Y53935000D01*
G75*
G02*
X54475000Y54085000I0J150000D01*
G01*
X54475000Y55735000D01*
G75*
G02*
X54625000Y55885000I150000J0D01*
G01*
G37*
G04 #@! TD.AperFunction*
G04 #@! TA.AperFunction,SMDPad,CuDef*
G36*
G01*
X88499000Y46017999D02*
X88499000Y46918001D01*
G75*
G02*
X88748999Y47168000I249999J0D01*
G01*
X89399001Y47168000D01*
G75*
G02*
X89649000Y46918001I0J-249999D01*
G01*
X89649000Y46017999D01*
G75*
G02*
X89399001Y45768000I-249999J0D01*
G01*
X88748999Y45768000D01*
G75*
G02*
X88499000Y46017999I0J249999D01*
G01*
G37*
G04 #@! TD.AperFunction*
G04 #@! TA.AperFunction,SMDPad,CuDef*
G36*
G01*
X86449000Y46017999D02*
X86449000Y46918001D01*
G75*
G02*
X86698999Y47168000I249999J0D01*
G01*
X87349001Y47168000D01*
G75*
G02*
X87599000Y46918001I0J-249999D01*
G01*
X87599000Y46017999D01*
G75*
G02*
X87349001Y45768000I-249999J0D01*
G01*
X86698999Y45768000D01*
G75*
G02*
X86449000Y46017999I0J249999D01*
G01*
G37*
G04 #@! TD.AperFunction*
G04 #@! TA.AperFunction,SMDPad,CuDef*
G36*
G01*
X52676000Y46398999D02*
X52676000Y47299001D01*
G75*
G02*
X52925999Y47549000I249999J0D01*
G01*
X53576001Y47549000D01*
G75*
G02*
X53826000Y47299001I0J-249999D01*
G01*
X53826000Y46398999D01*
G75*
G02*
X53576001Y46149000I-249999J0D01*
G01*
X52925999Y46149000D01*
G75*
G02*
X52676000Y46398999I0J249999D01*
G01*
G37*
G04 #@! TD.AperFunction*
G04 #@! TA.AperFunction,SMDPad,CuDef*
G36*
G01*
X50626000Y46398999D02*
X50626000Y47299001D01*
G75*
G02*
X50875999Y47549000I249999J0D01*
G01*
X51526001Y47549000D01*
G75*
G02*
X51776000Y47299001I0J-249999D01*
G01*
X51776000Y46398999D01*
G75*
G02*
X51526001Y46149000I-249999J0D01*
G01*
X50875999Y46149000D01*
G75*
G02*
X50626000Y46398999I0J249999D01*
G01*
G37*
G04 #@! TD.AperFunction*
D17*
X3325825Y4325825D03*
X2000000Y4875000D03*
X674175Y4325825D03*
X125000Y3000000D03*
X674175Y1674175D03*
X2000000Y1125000D03*
X3325825Y1674175D03*
X3875000Y3000000D03*
D18*
X2000000Y3000000D03*
D17*
X99325825Y55325825D03*
X98000000Y55875000D03*
X96674175Y55325825D03*
X96125000Y54000000D03*
X96674175Y52674175D03*
X98000000Y52125000D03*
X99325825Y52674175D03*
X99875000Y54000000D03*
D18*
X98000000Y54000000D03*
D17*
X99325825Y4325825D03*
X98000000Y4875000D03*
X96674175Y4325825D03*
X96125000Y3000000D03*
X96674175Y1674175D03*
X98000000Y1125000D03*
X99325825Y1674175D03*
X99875000Y3000000D03*
D18*
X98000000Y3000000D03*
D17*
X3325825Y55325825D03*
X2000000Y55875000D03*
X674175Y55325825D03*
X125000Y54000000D03*
X674175Y52674175D03*
X2000000Y52125000D03*
X3325825Y52674175D03*
X3875000Y54000000D03*
D18*
X2000000Y54000000D03*
G04 #@! TA.AperFunction,SMDPad,CuDef*
G36*
G01*
X40874001Y13898000D02*
X39973999Y13898000D01*
G75*
G02*
X39724000Y14147999I0J249999D01*
G01*
X39724000Y14798001D01*
G75*
G02*
X39973999Y15048000I249999J0D01*
G01*
X40874001Y15048000D01*
G75*
G02*
X41124000Y14798001I0J-249999D01*
G01*
X41124000Y14147999D01*
G75*
G02*
X40874001Y13898000I-249999J0D01*
G01*
G37*
G04 #@! TD.AperFunction*
G04 #@! TA.AperFunction,SMDPad,CuDef*
G36*
G01*
X40874001Y11848000D02*
X39973999Y11848000D01*
G75*
G02*
X39724000Y12097999I0J249999D01*
G01*
X39724000Y12748001D01*
G75*
G02*
X39973999Y12998000I249999J0D01*
G01*
X40874001Y12998000D01*
G75*
G02*
X41124000Y12748001I0J-249999D01*
G01*
X41124000Y12097999D01*
G75*
G02*
X40874001Y11848000I-249999J0D01*
G01*
G37*
G04 #@! TD.AperFunction*
G04 #@! TA.AperFunction,SMDPad,CuDef*
G36*
G01*
X43414001Y13898000D02*
X42513999Y13898000D01*
G75*
G02*
X42264000Y14147999I0J249999D01*
G01*
X42264000Y14798001D01*
G75*
G02*
X42513999Y15048000I249999J0D01*
G01*
X43414001Y15048000D01*
G75*
G02*
X43664000Y14798001I0J-249999D01*
G01*
X43664000Y14147999D01*
G75*
G02*
X43414001Y13898000I-249999J0D01*
G01*
G37*
G04 #@! TD.AperFunction*
G04 #@! TA.AperFunction,SMDPad,CuDef*
G36*
G01*
X43414001Y11848000D02*
X42513999Y11848000D01*
G75*
G02*
X42264000Y12097999I0J249999D01*
G01*
X42264000Y12748001D01*
G75*
G02*
X42513999Y12998000I249999J0D01*
G01*
X43414001Y12998000D01*
G75*
G02*
X43664000Y12748001I0J-249999D01*
G01*
X43664000Y12097999D01*
G75*
G02*
X43414001Y11848000I-249999J0D01*
G01*
G37*
G04 #@! TD.AperFunction*
G04 #@! TA.AperFunction,SMDPad,CuDef*
G36*
G01*
X45954001Y13898000D02*
X45053999Y13898000D01*
G75*
G02*
X44804000Y14147999I0J249999D01*
G01*
X44804000Y14798001D01*
G75*
G02*
X45053999Y15048000I249999J0D01*
G01*
X45954001Y15048000D01*
G75*
G02*
X46204000Y14798001I0J-249999D01*
G01*
X46204000Y14147999D01*
G75*
G02*
X45954001Y13898000I-249999J0D01*
G01*
G37*
G04 #@! TD.AperFunction*
G04 #@! TA.AperFunction,SMDPad,CuDef*
G36*
G01*
X45954001Y11848000D02*
X45053999Y11848000D01*
G75*
G02*
X44804000Y12097999I0J249999D01*
G01*
X44804000Y12748001D01*
G75*
G02*
X45053999Y12998000I249999J0D01*
G01*
X45954001Y12998000D01*
G75*
G02*
X46204000Y12748001I0J-249999D01*
G01*
X46204000Y12097999D01*
G75*
G02*
X45954001Y11848000I-249999J0D01*
G01*
G37*
G04 #@! TD.AperFunction*
G04 #@! TA.AperFunction,ComponentPad*
G36*
G01*
X1156500Y10927500D02*
X1156500Y11777500D01*
G75*
G02*
X1581500Y12202500I425000J0D01*
G01*
X2431500Y12202500D01*
G75*
G02*
X2856500Y11777500I0J-425000D01*
G01*
X2856500Y10927500D01*
G75*
G02*
X2431500Y10502500I-425000J0D01*
G01*
X1581500Y10502500D01*
G75*
G02*
X1156500Y10927500I0J425000D01*
G01*
G37*
G04 #@! TD.AperFunction*
D19*
X59220000Y48500000D03*
X61760000Y48500000D03*
X64300000Y48500000D03*
D13*
X66840000Y48500000D03*
D19*
X73190000Y48500000D03*
X75730000Y48500000D03*
X78270000Y48500000D03*
D13*
X80810000Y48500000D03*
D16*
X70830000Y37180000D03*
X70830000Y36680000D03*
X70830000Y36180000D03*
X70830000Y35680000D03*
X70830000Y35180000D03*
X70830000Y34680000D03*
D20*
X73330000Y32780000D03*
X73330000Y39080000D03*
D21*
X34060000Y14750000D03*
X70821600Y38424800D03*
X48130000Y36960000D03*
X50758500Y34657000D03*
X86017000Y48119000D03*
D22*
X42310000Y46000000D03*
D21*
X50885500Y31164500D03*
X49949000Y50151000D03*
D22*
X45504000Y7606000D03*
X47520000Y19798000D03*
D21*
X48091500Y32371000D03*
X47291291Y23261210D03*
X35979000Y23100000D03*
D22*
X55854500Y48309500D03*
X49441000Y48309500D03*
X58401000Y54909400D03*
X60579000Y54909400D03*
D21*
X36645750Y37482750D03*
X41440000Y42277000D03*
X36106000Y38594000D03*
X40297000Y42848500D03*
D22*
X78016000Y53086000D03*
X76125000Y53086000D03*
D21*
X38900000Y36562000D03*
X43472000Y41261000D03*
X38011000Y37451000D03*
D23*
X42710000Y42150000D03*
D21*
X60310000Y13550000D03*
X63060000Y13550000D03*
X65810000Y13550000D03*
X47310000Y3500000D03*
X60310000Y10950000D03*
X63060000Y10950000D03*
X65810000Y10950000D03*
X17280000Y44970000D03*
X61810000Y15500000D03*
X64560000Y9250000D03*
D24*
X83980000Y54910000D02*
X83880000Y55010000D01*
D25*
X81730800Y55499000D02*
X82252800Y54977000D01*
X64300000Y52691000D02*
X67108000Y55499000D01*
X82252800Y54977000D02*
X86017000Y54977000D01*
X64300000Y48500000D02*
X64300000Y52691000D01*
X81730800Y55499000D02*
X67108000Y55499000D01*
D26*
X88811000Y55239600D02*
X87896600Y55239600D01*
D25*
X78270000Y49897000D02*
X78270000Y48500000D01*
X80971000Y52598000D02*
X78270000Y49897000D01*
X87693400Y52598000D02*
X80971000Y52598000D01*
X88430000Y53334600D02*
X87693400Y52598000D01*
X88430000Y54833200D02*
X88430000Y53334600D01*
D24*
X70830000Y38416400D02*
X70821600Y38424800D01*
X70830000Y37180000D02*
X70830000Y38416400D01*
X50965000Y47085000D02*
X51201000Y46849000D01*
D27*
X50965000Y49960000D02*
X50965000Y47865000D01*
X50965000Y47865000D02*
X50965000Y47085000D01*
D24*
X50774000Y50151000D02*
X49949000Y50151000D01*
X50965000Y49960000D02*
X50774000Y50151000D01*
D26*
X45504000Y7606000D02*
X43930000Y7606000D01*
X42310000Y46000000D02*
X43369750Y46000000D01*
D28*
X48440000Y36650000D02*
X48130000Y36960000D01*
X49450000Y36650000D02*
X48440000Y36650000D01*
D24*
X50758500Y34657000D02*
X49758500Y34657000D01*
X50751500Y34650000D02*
X50758500Y34657000D01*
X49450000Y34650000D02*
X50751500Y34650000D01*
X48370500Y32650000D02*
X49450000Y32650000D01*
X48091500Y32371000D02*
X48370500Y32650000D01*
X50885500Y31164500D02*
X49885500Y31164500D01*
X50871000Y31150000D02*
X50885500Y31164500D01*
X49450000Y31150000D02*
X50871000Y31150000D01*
X48091500Y23671500D02*
X48091500Y23354000D01*
X48091500Y26402000D02*
X48091500Y23671500D01*
X48339500Y26650000D02*
X48091500Y26402000D01*
X49450000Y26650000D02*
X48339500Y26650000D01*
X48137000Y26150000D02*
X48091500Y26195500D01*
X49450000Y26150000D02*
X48137000Y26150000D01*
X48149000Y25650000D02*
X48091500Y25592500D01*
X49450000Y25650000D02*
X48149000Y25650000D01*
X48121000Y25150000D02*
X48091500Y25179500D01*
X49450000Y25150000D02*
X48121000Y25150000D01*
X48113000Y24650000D02*
X48091500Y24671500D01*
X49450000Y24650000D02*
X48113000Y24650000D01*
X48105000Y24150000D02*
X48091500Y24163500D01*
X49450000Y24150000D02*
X48105000Y24150000D01*
X48295500Y23150000D02*
X49450000Y23150000D01*
X48091500Y23354000D02*
X48295500Y23150000D01*
X47680081Y23650000D02*
X47291291Y23261210D01*
X49450000Y23650000D02*
X47680081Y23650000D01*
D28*
X48372000Y20650000D02*
X47520000Y19798000D01*
X49450000Y20650000D02*
X48372000Y20650000D01*
D24*
X48168000Y19150000D02*
X47520000Y19798000D01*
X49450000Y19150000D02*
X48168000Y19150000D01*
X49305000Y49507000D02*
X49949000Y50151000D01*
X47917000Y49507000D02*
X49305000Y49507000D01*
X86017000Y48627000D02*
X86017000Y48119000D01*
X85255000Y49389000D02*
X86017000Y48627000D01*
X85255000Y49960000D02*
X85255000Y49389000D01*
X85255000Y46323000D02*
X84239000Y45307000D01*
X85255000Y49960000D02*
X85255000Y46323000D01*
X31890000Y22110000D02*
X34989000Y22110000D01*
X34989000Y22110000D02*
X35979000Y23100000D01*
X87024000Y46477000D02*
X87024000Y46468000D01*
X86017000Y47484000D02*
X87024000Y46477000D01*
X86017000Y48119000D02*
X86017000Y47484000D01*
X47310000Y5800000D02*
X45504000Y7606000D01*
X47310000Y5550000D02*
X47310000Y5800000D01*
D27*
X53251000Y46849000D02*
X54775000Y46849000D01*
D26*
X51901500Y35101500D02*
X51901500Y22655500D01*
X31890000Y44970000D02*
X37200000Y44970000D01*
D27*
X54775000Y49960000D02*
X54775000Y48309500D01*
X54775000Y48309500D02*
X54775000Y46849000D01*
X54775000Y48309500D02*
X55854500Y48309500D01*
X44085000Y48000000D02*
X44060000Y48025000D01*
X49131500Y48000000D02*
X44085000Y48000000D01*
X49441000Y48309500D02*
X49131500Y48000000D01*
D26*
X39822000Y48025000D02*
X44060000Y48025000D01*
X37200000Y45403000D02*
X39822000Y48025000D01*
X37200000Y44970000D02*
X37200000Y45403000D01*
X51092800Y35910200D02*
X51901500Y35101500D01*
X45497800Y35910200D02*
X51092800Y35910200D01*
X37200000Y44208000D02*
X45497800Y35910200D01*
X37200000Y44970000D02*
X37200000Y44208000D01*
D24*
X51901500Y22655500D02*
X53187500Y22655500D01*
D28*
X51896000Y22650000D02*
X51901500Y22655500D01*
X49450000Y22650000D02*
X51896000Y22650000D01*
D24*
X89065000Y46477000D02*
X89074000Y46468000D01*
X89065000Y49960000D02*
X89065000Y46477000D01*
D27*
X89074000Y46413500D02*
X89074000Y46468000D01*
X86334500Y43674000D02*
X89074000Y46413500D01*
X74206000Y43674000D02*
X86334500Y43674000D01*
X72999500Y44880500D02*
X74206000Y43674000D01*
X57696000Y44880500D02*
X72999500Y44880500D01*
X56807000Y45769500D02*
X57696000Y44880500D01*
X56807000Y47420500D02*
X56807000Y45769500D01*
X55918000Y48309500D02*
X56807000Y47420500D01*
X55854500Y48309500D02*
X55918000Y48309500D01*
D24*
X51285000Y20150000D02*
X51901500Y20766500D01*
X49450000Y20150000D02*
X51285000Y20150000D01*
X51901500Y20099500D02*
X51901500Y22655500D01*
X51452000Y19650000D02*
X51901500Y20099500D01*
X49450000Y19650000D02*
X51452000Y19650000D01*
D28*
X67227500Y35897500D02*
X68445000Y34680000D01*
X68445000Y34680000D02*
X70830000Y34680000D01*
X67227500Y39707500D02*
X67227500Y35897500D01*
X66295000Y40640000D02*
X67227500Y39707500D01*
X56567000Y40640000D02*
X66295000Y40640000D01*
X51592000Y35665000D02*
X56567000Y40640000D01*
X51338000Y35665000D02*
X51592000Y35665000D01*
D24*
X53528601Y9518601D02*
X49560000Y5550000D01*
X53528601Y22314399D02*
X53528601Y9518601D01*
X53187500Y22655500D02*
X53528601Y22314399D01*
D26*
X51035600Y55231000D02*
X51981000Y55231000D01*
D25*
X61760000Y50193200D02*
X61760000Y48500000D01*
X51600000Y54596000D02*
X51600000Y53478400D01*
X51600000Y53478400D02*
X52514400Y52564000D01*
X59389200Y52564000D02*
X61760000Y50193200D01*
X52514400Y52564000D02*
X59389200Y52564000D01*
X54013000Y54909400D02*
X60579000Y54909400D01*
D24*
X46666014Y27650000D02*
X49450000Y27650000D01*
X45313500Y24052500D02*
X45313500Y26297486D01*
X45313500Y26297486D02*
X46666014Y27650000D01*
X38074500Y16813500D02*
X45313500Y24052500D01*
X38074500Y10082500D02*
X38074500Y16813500D01*
X36233000Y8241000D02*
X38074500Y10082500D01*
X30073500Y8241000D02*
X36233000Y8241000D01*
X21284500Y17030000D02*
X30073500Y8241000D01*
X14110000Y17030000D02*
X21284500Y17030000D01*
X14263000Y21957000D02*
X14110000Y22110000D01*
X30137000Y13257500D02*
X21437500Y21957000D01*
X35090000Y13257500D02*
X30137000Y13257500D01*
X36741000Y18274000D02*
X36741000Y14908500D01*
X43027500Y24560500D02*
X36741000Y18274000D01*
X43027500Y25681012D02*
X43027500Y24560500D01*
X45996488Y28650000D02*
X43027500Y25681012D01*
X21437500Y21957000D02*
X14263000Y21957000D01*
X36741000Y14908500D02*
X35090000Y13257500D01*
X49450000Y28650000D02*
X45996488Y28650000D01*
X49450000Y34150000D02*
X48450000Y34150000D01*
X49449000Y34149000D02*
X49450000Y34150000D01*
X43980000Y34149000D02*
X49449000Y34149000D01*
X36961000Y41168000D02*
X43980000Y34149000D01*
X25531000Y41168000D02*
X36961000Y41168000D01*
X19189000Y47510000D02*
X25531000Y41168000D01*
X14110000Y47510000D02*
X19189000Y47510000D01*
X14118000Y14498000D02*
X14110000Y14490000D01*
X47014000Y27150000D02*
X49450000Y27150000D01*
X46202500Y26338500D02*
X47014000Y27150000D01*
X46202500Y23544500D02*
X46202500Y26338500D01*
X38900000Y16242000D02*
X46202500Y23544500D01*
X27978000Y7796500D02*
X30581500Y5193000D01*
X27978000Y9003000D02*
X27978000Y7796500D01*
X36233000Y5193000D02*
X38900000Y7860000D01*
X27152500Y9828500D02*
X27978000Y9003000D01*
X30581500Y5193000D02*
X36233000Y5193000D01*
X25184000Y9828500D02*
X27152500Y9828500D01*
X20522500Y14490000D02*
X25184000Y9828500D01*
X38900000Y7860000D02*
X38900000Y16242000D01*
X14110000Y14490000D02*
X20522500Y14490000D01*
X46426500Y28150000D02*
X49450000Y28150000D01*
X44361000Y26084500D02*
X46426500Y28150000D01*
X37439500Y17575500D02*
X44361000Y24497000D01*
X44361000Y24497000D02*
X44361000Y26084500D01*
X37439500Y12813000D02*
X37439500Y17575500D01*
X35280500Y10654000D02*
X37439500Y12813000D01*
X30073500Y10654000D02*
X35280500Y10654000D01*
X21157500Y19570000D02*
X30073500Y10654000D01*
X14110000Y19570000D02*
X21157500Y19570000D01*
X69976800Y35680000D02*
X70830000Y35680000D01*
X69323000Y36333800D02*
X69976800Y35680000D01*
X69323000Y40737000D02*
X69323000Y36333800D01*
X67560000Y42500000D02*
X69323000Y40737000D01*
X44361000Y40499000D02*
X46362000Y42500000D01*
X43091000Y40499000D02*
X44361000Y40499000D01*
X46362000Y42500000D02*
X67560000Y42500000D01*
X41440000Y42150000D02*
X43091000Y40499000D01*
X41440000Y42277000D02*
X41440000Y42150000D01*
X21094000Y39890000D02*
X14110000Y39890000D01*
X35280500Y36117500D02*
X24866500Y36117500D01*
X24866500Y36117500D02*
X21094000Y39890000D01*
X36645750Y37482750D02*
X35280500Y36117500D01*
X70830000Y35180000D02*
X69976800Y35180000D01*
X69469000Y35180000D02*
X70830000Y35180000D01*
X68307000Y40088500D02*
X68307000Y36342000D01*
X66645500Y41750000D02*
X68307000Y40088500D01*
X47810000Y41750000D02*
X66645500Y41750000D01*
X46051000Y39991000D02*
X47810000Y41750000D01*
X68307000Y36342000D02*
X69469000Y35180000D01*
X42710000Y39991000D02*
X46051000Y39991000D01*
X40297000Y42404000D02*
X42710000Y39991000D01*
X40297000Y42848500D02*
X40297000Y42404000D01*
X21411500Y42430000D02*
X14110000Y42430000D01*
X25247500Y38594000D02*
X21411500Y42430000D01*
X36106000Y38594000D02*
X25247500Y38594000D01*
X39916000Y23862000D02*
X45186500Y29132500D01*
X45712000Y29150000D02*
X49450000Y29150000D01*
X39916000Y22846000D02*
X39916000Y23862000D01*
X34963000Y15734000D02*
X36042500Y16813500D01*
X36042500Y18972500D02*
X39916000Y22846000D01*
X36042500Y16813500D02*
X36042500Y18972500D01*
X30391000Y15734000D02*
X34963000Y15734000D01*
X45186500Y29132500D02*
X45694500Y29132500D01*
X18935000Y27190000D02*
X30391000Y15734000D01*
X45694500Y29132500D02*
X45712000Y29150000D01*
X14110000Y27190000D02*
X18935000Y27190000D01*
X44243500Y29650000D02*
X49450000Y29650000D01*
X38519000Y23925500D02*
X44243500Y29650000D01*
X38519000Y22973000D02*
X38519000Y23925500D01*
X35407500Y18909000D02*
X35407500Y19861500D01*
X34772500Y18274000D02*
X35407500Y18909000D01*
X30772000Y18274000D02*
X34772500Y18274000D01*
X19316000Y29730000D02*
X30772000Y18274000D01*
X35407500Y19861500D02*
X38519000Y22973000D01*
X14110000Y29730000D02*
X19316000Y29730000D01*
X37503000Y24370000D02*
X43283000Y30150000D01*
X43283000Y30150000D02*
X49450000Y30150000D01*
X37503000Y23354000D02*
X37503000Y24370000D01*
X35026500Y20877500D02*
X37503000Y23354000D01*
X30708500Y20877500D02*
X35026500Y20877500D01*
X19316000Y32270000D02*
X30708500Y20877500D01*
X14110000Y32270000D02*
X19316000Y32270000D01*
X46139000Y30656500D02*
X46145500Y30650000D01*
X42075000Y30656500D02*
X46139000Y30656500D01*
X30264000Y23354000D02*
X34772500Y23354000D01*
X25247500Y28370500D02*
X30264000Y23354000D01*
X34772500Y23354000D02*
X42075000Y30656500D01*
X25247500Y29323000D02*
X25247500Y28370500D01*
X46145500Y30650000D02*
X49450000Y30650000D01*
X19760500Y34810000D02*
X25247500Y29323000D01*
X14110000Y34810000D02*
X19760500Y34810000D01*
D25*
X68886000Y53086000D02*
X66840000Y51040000D01*
X78016000Y53086000D02*
X68886000Y53086000D01*
X66840000Y51040000D02*
X66840000Y48500000D01*
D28*
X45504000Y19417000D02*
X45504000Y14473000D01*
X47237000Y21150000D02*
X45504000Y19417000D01*
X49450000Y21150000D02*
X47237000Y21150000D01*
X42964000Y17766000D02*
X42964000Y14473000D01*
X46848000Y21650000D02*
X42964000Y17766000D01*
X49450000Y21650000D02*
X46848000Y21650000D01*
X40424000Y16115000D02*
X40424000Y14473000D01*
X46459000Y22150000D02*
X40424000Y16115000D01*
X49450000Y22150000D02*
X46459000Y22150000D01*
D24*
X42955000Y33650000D02*
X49450000Y33650000D01*
X36715000Y39890000D02*
X42955000Y33650000D01*
X31890000Y39890000D02*
X36715000Y39890000D01*
X35306500Y32270000D02*
X31890000Y32270000D01*
X38900000Y35863500D02*
X35306500Y32270000D01*
X38900000Y36562000D02*
X38900000Y35863500D01*
X45885000Y43674000D02*
X43472000Y41261000D01*
X71158000Y42404000D02*
X69888000Y43674000D01*
X69888000Y43674000D02*
X45885000Y43674000D01*
X87033000Y42404000D02*
X71158000Y42404000D01*
X90271500Y45642500D02*
X87033000Y42404000D01*
X90271500Y50849500D02*
X90271500Y45642500D01*
X89827000Y51294000D02*
X90271500Y50849500D01*
X88366500Y51294000D02*
X89827000Y51294000D01*
X87795000Y50722500D02*
X88366500Y51294000D01*
X87795000Y49960000D02*
X87795000Y50722500D01*
X42710000Y42213500D02*
X42710000Y42150000D01*
X45313500Y44817000D02*
X42710000Y42213500D01*
X51727000Y44817000D02*
X45313500Y44817000D01*
X52171500Y45261500D02*
X51727000Y44817000D01*
X52171500Y47547500D02*
X52171500Y45261500D01*
X53505000Y48881000D02*
X52171500Y47547500D01*
X53505000Y49960000D02*
X53505000Y48881000D01*
X35370000Y34810000D02*
X31890000Y34810000D01*
X38011000Y37451000D02*
X35370000Y34810000D01*
D26*
X40315000Y12432000D02*
X45504000Y12432000D01*
X42964000Y9622000D02*
X42964000Y12337000D01*
D24*
X14800000Y6870000D02*
X14110000Y6870000D01*
X37743500Y3351500D02*
X42014000Y7622000D01*
X14833500Y3351500D02*
X37743500Y3351500D01*
X14110000Y4075000D02*
X14833500Y3351500D01*
X14110000Y6870000D02*
X14110000Y4075000D01*
X46542500Y31650000D02*
X49450000Y31650000D01*
X40261482Y31650000D02*
X46542500Y31650000D01*
X30264000Y26021000D02*
X34632482Y26021000D01*
X27597000Y28688000D02*
X30264000Y26021000D01*
X27597000Y29704000D02*
X27597000Y28688000D01*
X21247000Y36054000D02*
X27597000Y29704000D01*
X9182000Y37705000D02*
X10833000Y36054000D01*
X9182000Y51167000D02*
X9182000Y37705000D01*
X10833000Y36054000D02*
X21247000Y36054000D01*
X10605000Y52590000D02*
X9182000Y51167000D01*
X34632482Y26021000D02*
X40261482Y31650000D01*
X14110000Y52590000D02*
X10605000Y52590000D01*
X16268000Y55130000D02*
X14110000Y55130000D01*
X27724000Y43674000D02*
X16268000Y55130000D01*
X35852000Y43674000D02*
X27724000Y43674000D01*
X44376000Y35150000D02*
X35852000Y43674000D01*
X49450000Y35150000D02*
X44376000Y35150000D01*
X31890000Y27190000D02*
X32054500Y27354500D01*
X40187000Y33150000D02*
X49450000Y33150000D01*
X34227000Y27190000D02*
X40187000Y33150000D01*
X31890000Y27190000D02*
X34227000Y27190000D01*
X84239000Y47865000D02*
X83731000Y47357000D01*
X84239000Y50786000D02*
X84239000Y47865000D01*
X84747000Y51294000D02*
X84239000Y50786000D01*
X85890000Y51294000D02*
X84747000Y51294000D01*
X86525000Y50659000D02*
X85890000Y51294000D01*
X86525000Y49960000D02*
X86525000Y50659000D01*
X51083000Y51557000D02*
X47917000Y51557000D01*
X52235000Y50405000D02*
X51083000Y51557000D01*
X52235000Y49960000D02*
X52235000Y50405000D01*
X9880500Y4812000D02*
X13119000Y1573500D01*
X9880500Y8622000D02*
X9880500Y4812000D01*
X10668500Y9410000D02*
X9880500Y8622000D01*
X14110000Y9410000D02*
X10668500Y9410000D01*
X59356800Y12250000D02*
X58986500Y11879700D01*
X60310000Y12250000D02*
X59356800Y12250000D01*
X58133500Y1573500D02*
X58986500Y2426500D01*
X58986500Y11879700D02*
X58986500Y2426500D01*
X13119000Y1573500D02*
X58133500Y1573500D01*
X60310000Y13550000D02*
X60310000Y13550000D01*
X49560000Y3547592D02*
X49560000Y3500000D01*
X59562408Y13550000D02*
X49560000Y3547592D01*
X60310000Y13550000D02*
X59562408Y13550000D01*
X63060000Y13550000D02*
X63060000Y13550000D01*
X65810000Y13550000D02*
X65810000Y13550000D01*
X60310000Y10950000D02*
X60310000Y10950000D01*
X65810000Y10950000D02*
X65810000Y10950000D01*
X63060000Y10950000D02*
X63060000Y10950000D01*
X14110000Y44970000D02*
X17280000Y44970000D01*
X17280000Y44970000D02*
X17280000Y44970000D01*
X62106800Y12250000D02*
X61810000Y12546800D01*
X63060000Y12250000D02*
X62106800Y12250000D01*
X61810000Y12546800D02*
X61810000Y15500000D01*
X61810000Y15500000D02*
X61810000Y15500000D01*
X64856800Y12250000D02*
X64560000Y11953200D01*
X65810000Y12250000D02*
X64856800Y12250000D01*
X64560000Y11953200D02*
X64560000Y9250000D01*
X64560000Y9250000D02*
X64560000Y9250000D01*
M02*
